<?xml version="1.0" standalone="no"?>
<!DOCTYPE svg PUBLIC "-//W3C//DTD SVG 1.1//EN" "http://www.w3.org/Graphics/SVG/1.1/DTD/svg11.dtd" >
<svg>
<metadata>
Created by FontForge 20090914 at Fri Aug  4 08:24:58 2017
 By www-data
&#194;&#169; 1987, 1991, 1993, 1994, 1998, 2002 Adobe Systems Incorporated. All rights reserved. &#194;&#169; 1981, 1998, 2002 Heidelberger Druckmaschinen AG. All rights reserved.
</metadata>
<defs>
<font id="UniversLTStd-Bold" horiz-adv-x="556" >
  <font-face 
    font-family="Univers LT Std 45 Light"
    font-weight="700"
    font-stretch="normal"
    units-per-em="1000"
    panose-1="2 11 7 3 3 5 2 2 2 4"
    ascent="724"
    descent="-276"
    x-height="505"
    cap-height="725"
    bbox="-167 -250 995 938"
    underline-thickness="50"
    underline-position="-50"
    unicode-range="U+0020-U+FB02"
  />
<missing-glyph horiz-adv-x="500" 
d="M0 0v700h500v-700h-500zM250 395l170 255h-340zM280 350l170 -255v510zM80 50h340l-170 255zM50 605v-510l170 255z" />
    <glyph glyph-name="f_i" unicode="fi" horiz-adv-x="611" 
d="M78 0l-0.00195312 399.999h-76v105h76v69c0 50.667 12.167 90.167 36.5 118.5s69.833 42.5 136.5 42.5c26 0 52.667 -1.66699 80 -5v-103c-15.333 2 -25.666 3 -30.999 3c-17.333 0 -31.666 -2 -42.999 -6s-19 -10 -23 -18s-6.5 -14.667 -7.5 -20
s-1.5 -12.666 -1.5 -21.999v-59h93v-105h-93v-400h-147zM392.998 592.999v129h158v-129h-158zM397.998 -0.000976562v506h148v-506h-148z" />
    <glyph glyph-name="f_l" unicode="fl" horiz-adv-x="611" 
d="M80 0v399.999h-75v105h75v69c0 50.667 12.333 90.167 37 118.5s70.334 42.5 137.001 42.5c25.333 0 51.666 -1.66699 78.999 -5v-103c-14 2 -24 3 -30 3c-18 0 -32.5 -2 -43.5 -6s-18.667 -10 -23 -18s-7 -14.667 -8 -20s-1.5 -12.666 -1.5 -21.999v-59h94v-105h-94v-400
h-147zM398 -0.000976562v723h148v-723h-148z" />
    <glyph glyph-name=".notdef" horiz-adv-x="500" 
d="M0 0v700h500v-700h-500zM250 395l170 255h-340zM280 350l170 -255v510zM80 50h340l-170 255zM50 605v-510l170 255z" />
    <glyph glyph-name="space" unicode=" " horiz-adv-x="278" 
 />
    <glyph glyph-name="exclam" unicode="!" horiz-adv-x="389" 
d="M244 197h-103l-18 526h134zM129 0v133h127v-133h-127z" />
    <glyph glyph-name="quotedbl" unicode="&#x22;" horiz-adv-x="474" 
d="M73 697h133l-27 -248h-79zM265 697h132l-26 -248h-79z" />
    <glyph glyph-name="numbersign" unicode="#" 
d="M-9 175v110h103l22 121h-82v110h103l33 181h128l-33 -181h95l33 181h129l-34 -181h83v-110h-103l-22 -121h82v-110h-103l-32 -175h-128l33 175h-96l-32 -175h-129l32 175h-82zM222 285h95l23 121h-95z" />
    <glyph glyph-name="dollar" unicode="$" 
d="M24 215h136.001c-0.666992 -23.333 2.16602 -43 8.49902 -59s14.833 -27.5 25.5 -34.5s20 -11.667 28 -14s15.667 -3.5 23 -3.5v177c-32 8.66699 -58.333 17.334 -79 26.001s-41.834 20.667 -63.501 36s-37.834 34.833 -48.501 58.5s-16 51.5 -16 83.5
c0 50.667 17 94.667 51 132c17.333 18.667 37.833 33.667 61.5 45s41.167 18 52.5 20s27.333 4 48 6v84h55v-82c72 -5.33301 125.333 -25.333 160 -60c31.333 -31.333 48 -77 50 -137h-134c-1.33301 34 -8.33301 57.167 -21 69.5s-31.667 19.833 -57 22.5v-178
c34.667 -8.66699 62.334 -16.834 83.001 -24.501s42.834 -19 66.501 -34s41.167 -34.667 52.5 -59s17 -53.5 17 -87.5c0 -66.667 -28.333 -120.334 -85 -161.001c-36 -25.333 -83 -39.666 -141 -42.999v-100h-53v100c-65.333 -2 -120.333 17.667 -165 59
c-34.667 32 -53 84.667 -55 158zM250.001 422v160.997c-24.667 -1.33301 -43.5 -9.16602 -56.5 -23.499s-19.5 -32.5 -19.5 -54.5c0 -25.333 6.5 -43.666 19.5 -54.999s31.833 -20.666 56.5 -27.999zM299.001 269.997v-168c22.667 2 41.834 10.5 57.501 25.5
s23.5 34.833 23.5 59.5c0 21.333 -6.33301 38.5 -19 51.5s-33.334 23.5 -62.001 31.5z" />
    <glyph glyph-name="percent" unicode="%" horiz-adv-x="889" 
d="M50 569c0 128.667 55.667 193.001 167 193.001c26.667 0 50 -3.5 70 -10.5s35.833 -15.833 47.5 -26.5s21 -24.334 28 -41.001s11.667 -33.167 14 -49.5s3.5 -34.833 3.5 -55.5c0 -133.333 -56.667 -200 -170 -200c-106.667 0 -160 63.333 -160 190zM158 573.001
c0 -39.333 4 -67.834 12 -85.501s22.333 -26.5 43 -26.5c18.667 0 33 8.33301 43 25s15 47.334 15 92.001c0 70.667 -18 106 -54 106c-39.333 0 -59 -37 -59 -111zM510 182c0 16 0.333008 29.5 1 40.5s4 27 10 48s14.333 38.167 25 51.5s27.334 25.333 50.001 36
s49.667 16 81 16c33.333 0 61.166 -4.83301 83.499 -14.5s39 -23.667 50 -42s18.667 -37.333 23 -57s6.5 -42.5 6.5 -68.5c0 -134 -57 -201 -171 -201c-106 0 -159 63.667 -159 191zM617 185c0 -39.333 4.16699 -67.834 12.5 -85.501s22.833 -26.5 43.5 -26.5
c18.667 0 33 8.33301 43 25s15 47.334 15 92.001c0 70.667 -18.333 106 -55 106c-39.333 0 -59 -37 -59 -111zM593 768.999h75l-380 -781h-75z" />
    <glyph glyph-name="ampersand" unicode="&#x26;" horiz-adv-x="778" 
d="M559 449l147.998 0.00292969c0 -61.333 -6.16699 -114.833 -18.5 -160.5s-33.166 -91.834 -62.499 -138.501l147 -152h-187l-56 67c-21.333 -16 -39.666 -28.833 -54.999 -38.5s-39.666 -19.667 -72.999 -30s-68.666 -15.5 -105.999 -15.5
c-80.667 0 -146.334 19.333 -197.001 58s-76 92 -76 160c0 51.333 17.333 98.666 52 141.999c22.667 28.667 55.667 56.667 99 84c-58 48.667 -87 99.667 -87 153c0 10.667 1.16699 22 3.5 34s8.16602 26 17.499 42s21.5 30.333 36.5 43s36.667 23.334 65 32.001
s61.166 13 98.499 13c30 0 57 -2.66699 81 -8s43.5 -12.5 58.5 -21.5s27.833 -18.833 38.5 -29.5s18.667 -22.334 24 -35.001s9 -24 11 -34s3 -20 3 -30c0 -26 -5 -50 -15 -72s-24.167 -40.833 -42.5 -56.5s-32.666 -27.167 -42.999 -34.5s-23.5 -15.333 -39.5 -24l146 -147
c12.667 35.333 20.667 66.166 24 92.499s5 61.833 5 106.5zM306.998 475.003c48.667 34.667 73.001 69.667 73.001 105c0 19.333 -6.5 35.166 -19.5 47.499s-30.5 18.5 -52.5 18.5s-39.667 -5.83301 -53 -17.5s-20 -27.167 -20 -46.5c0 -13.333 5.66699 -28.666 17 -45.999
s21.666 -30.5 30.999 -39.5s17.333 -16.167 24 -21.5zM438.999 145.003l-182 185.001c-52 -34 -78 -73.667 -78 -119c0 -36.667 12.5 -65.834 37.5 -87.501s54.833 -32.5 89.5 -32.5c44.667 0 89 18 133 54z" />
    <glyph glyph-name="quotesingle" unicode="'" horiz-adv-x="238" 
d="M78 449l-27 248h133l-27 -248h-79z" />
    <glyph glyph-name="parenleft" unicode="(" horiz-adv-x="333" 
d="M164 757h109c-17.333 -52 -30.5 -93.333 -39.5 -124s-19.333 -77.5 -31 -140.5s-17.5 -121.833 -17.5 -176.5c0 -62 6 -121.333 18 -178s35 -143.667 69 -261h-109c-67.333 164 -101 308.667 -101 434c0 124 34 272.667 102 446z" />
    <glyph glyph-name="parenright" unicode=")" horiz-adv-x="333" 
d="M169 -123l-109 -0.000976562c17.333 52 30.5 93.333 39.5 124s19.333 77.5 31 140.5s17.5 121.833 17.5 176.5c0 62 -6 121.167 -18 177.5s-35 143.5 -69 261.5h109c67.333 -163.333 101 -307.666 101 -432.999c0 -123.333 -34 -272.333 -102 -447z" />
    <glyph glyph-name="asterisk" unicode="*" 
d="M67 465v106l152 -22l-94 119l93 51l56 -138l59 141l93 -55l-98 -118l153 18l-2 -106l-149 23l94 -123l-93 -51l-58 141l-58 -142l-90 54l93 122z" />
    <glyph glyph-name="plus" unicode="+" horiz-adv-x="584" 
d="M225 0v202h-199v129h199v202h134v-202h199v-129h-199v-202h-134z" />
    <glyph glyph-name="comma" unicode="," horiz-adv-x="278" 
d="M102 133h148l-119 -246h-103z" />
    <glyph glyph-name="hyphen" unicode="-" horiz-adv-x="333" 
d="M44 208v113h248v-113h-248z" />
    <glyph glyph-name="period" unicode="." horiz-adv-x="278" 
d="M74 0v133h127v-133h-127z" />
    <glyph glyph-name="slash" unicode="/" horiz-adv-x="444" 
d="M300 718h115l-269 -718h-117z" />
    <glyph glyph-name="zero" unicode="0" 
d="M38 347c0 16.667 0.50293 33.332 1.50293 49.999s3.5 37.334 7.5 62.001s9.33301 47.834 16 69.501s16.167 43.834 28.5 66.501s26.666 42 42.999 58s37.166 29.167 62.499 39.5s53.333 15.5 84 15.5c44 0 81.167 -9.16699 111.5 -27.5s53.833 -39.833 70.5 -64.5
c42 -62 63 -146 63 -252c0 -36 -1.83301 -69.833 -5.5 -101.5s-10.834 -65 -21.501 -100s-24.667 -64.667 -42 -89s-41.333 -44.5 -72 -60.5s-66 -24 -106 -24c-43.333 0 -81 9.66699 -113 29s-57 46.166 -75 80.499s-31.333 72.166 -40 113.499s-13 86.333 -13 135z
M376.003 338.998c0 72 -5.99902 129.333 -17.999 172c-1.33301 6.66699 -3.33301 13.667 -6 21s-6.83398 16 -12.501 26s-13.5 18.167 -23.5 24.5s-21.333 9.5 -34 9.5c-32.667 0 -55.667 -20 -69 -60c-15.333 -47.333 -23 -112.333 -23 -195c0 -153.333 31 -230 93 -230
s93 77.333 93 232z" />
    <glyph glyph-name="one" unicode="1" 
d="M95 454v139.001c66 28.667 127.667 63.667 185 105h129v-698h-151v543c-42.667 -32.667 -97 -62.334 -163 -89.001z" />
    <glyph glyph-name="two" unicode="2" 
d="M25 0l0.00585938 140.999l181 165c46.667 42 81.667 77.333 105 106c19.333 22.667 32.166 41 38.499 55s9.5 29.333 9.5 46c0 26.667 -7.33301 48.167 -22 64.5s-35 24.5 -61 24.5c-18.667 0 -34.334 -4.16699 -47.001 -12.5s-21.667 -19 -27 -32
s-8.83301 -23.667 -10.5 -32s-2.83398 -16.833 -3.50098 -25.5h-153c0 53.333 13.667 97 41 131c40.667 50.667 107 76 199 76c74 0 131.833 -17.667 173.5 -53s62.5 -81 62.5 -137c0 -21.333 -3.33301 -41.833 -10 -61.5s-20.334 -45.334 -41.001 -77.001
s-54.334 -70 -101.001 -115s-106 -96.5 -178 -154.5c25.333 0.666992 56.333 1.33398 93 2.00098s69.667 1.33398 99 2.00098c85.333 1.33301 132.666 2.33301 141.999 3v-116h-490z" />
    <glyph glyph-name="three" unicode="3" 
d="M22 190l151.998 0.00195312c2.66699 -62 32.667 -93 90 -93c27.333 0 49.166 9 65.499 27s24.5 40.667 24.5 68c0 20 -4 36.833 -12 50.5s-16.833 23.834 -26.5 30.501s-23.667 11.834 -42 15.501s-33.166 5.66699 -44.499 6s-27 0.5 -47 0.5v117l38 1.5
c8.66699 0.333008 21.167 1.66602 37.5 3.99902s29 5.66602 38 9.99902s18.833 10.166 29.5 17.499s18.334 17 23.001 29s7 26 7 42c0 26 -8.33301 46.333 -25 61s-37 22 -61 22c-23.333 0 -43.333 -7.66699 -60 -23s-25 -36.666 -25 -63.999h-153
c4.66699 51.333 18.334 90.666 41.001 117.999c42 51.333 106.667 77 194 77c42 0 79 -6.16699 111 -18.5s56.5 -28.5 73.5 -48.5s29.667 -40.333 38 -61s12.5 -41.334 12.5 -62.001c0 -79.333 -44.667 -132 -134 -158c34 -10.667 61.667 -25 83 -43
c38 -32 57 -73.667 57 -125c0 -59.333 -24 -108.5 -72 -147.5s-108.333 -58.5 -181 -58.5s-128.667 15.667 -168 47c-42.667 35.333 -64 88 -64 158z" />
    <glyph glyph-name="four" unicode="4" 
d="M296 152h-280v135l280 411h149l-1 -431h95v-115h-95v-152h-148v152zM306 525l-178 -261h176v184c0 27.333 0.666992 53 2 77z" />
    <glyph glyph-name="five" unicode="5" 
d="M31 172h148.001c-0.666992 -8 0.833008 -17.333 4.5 -28s12.167 -21.667 25.5 -33s30.666 -17 51.999 -17c29.333 0 53.833 11 73.5 33s29.5 54.667 29.5 98c0 36.667 -7.66699 66.667 -23 90s-38.666 35 -69.999 35c-44.667 0 -74.334 -23.333 -89.001 -70l-145 4
l16 413h423v-114h-291l-9 -173c11.333 10 20.5 17.5 27.5 22.5s20.333 10.833 40 17.5s41.167 10 64.5 10c58 0 106.833 -20 146.5 -60s59.5 -94 59.5 -162c0 -31.333 -4.66699 -61.333 -14 -90s-23.5 -55.5 -42.5 -80.5s-45.167 -45 -78.5 -60s-71.333 -22.5 -114 -22.5
c-87.333 0 -152.333 25.333 -195 76c-24 29.333 -37 66.333 -39 111z" />
    <glyph glyph-name="six" unicode="6" 
d="M519 525l-148.001 0.00195312c-1.33301 23.333 -8.83301 40.666 -22.5 51.999s-30.5 17 -50.5 17c-19.333 0 -35.833 -4.83301 -49.5 -14.5s-23.834 -20.5 -30.501 -32.5s-12 -28.667 -16 -50s-6.33301 -38 -7 -50s-1.33398 -28.333 -2.00098 -49
c40.667 37.333 86.334 56 137.001 56c53.333 0 100 -19 140 -57s60 -92.667 60 -164c0 -76 -24.667 -136.667 -74 -182c-46.667 -43.333 -106 -65 -178 -65c-33.333 0 -63.166 4.66699 -89.499 14s-47.666 20.5 -63.999 33.5s-30.5 30.167 -42.5 51.5
s-20.833 40.5 -26.5 57.5s-10 37.667 -13 62s-4.66699 42.333 -5 54s-0.5 26.5 -0.5 44.5c0 181.333 37.667 299.666 113 354.999c43.333 32.667 97 49 161 49c57.333 0 106 -15.333 146 -46s60.667 -76 62 -136zM286.999 98.002c25.333 0 47.667 10.002 67 30.002
s29 51.667 29 95c0 37.333 -8.5 66.666 -25.5 87.999s-38.5 32 -64.5 32c-8 0 -16.833 -1.5 -26.5 -4.5s-20.5 -8.33301 -32.5 -16s-22 -20.334 -30 -38.001s-12 -39.167 -12 -64.5c0 -40.667 9.16699 -71.167 27.5 -91.5s40.833 -30.5 67.5 -30.5z" />
    <glyph glyph-name="seven" unicode="7" 
d="M37 581v116h473v-124l-240 -573h-167l255 581h-321z" />
    <glyph glyph-name="eight" unicode="8" 
d="M174 366c-88 27.333 -131.999 77.001 -131.999 149.001c0 49.333 20.667 94.166 62 134.499s101 60.5 179 60.5c69.333 0 126.166 -17.833 170.499 -53.5s66.5 -80.834 66.5 -135.501c0 -40 -13.5 -74 -40.5 -102s-59.167 -45 -96.5 -51
c14.667 -4 26.167 -7.5 34.5 -10.5s20.5 -10 36.5 -21s29.667 -24.5 41 -40.5c21.333 -30 32 -64.667 32 -104c0 -62 -24.833 -111.333 -74.5 -148s-110.167 -55 -181.5 -55c-70 0 -127.5 19.667 -172.5 59s-67.5 87.333 -67.5 144c0 48.667 17 89.334 51 122.001
c21.333 20.667 52 38 92 52zM281.001 423.001c26.667 0 48.998 8.16797 66.998 24.501s27 38.166 27 65.499s-9.16699 48.666 -27.5 63.999s-40.166 23 -65.499 23s-46.833 -8 -64.5 -24s-26.5 -37 -26.5 -63c0 -25.333 8.33301 -46.666 25 -63.999s38.334 -26 65.001 -26z
M280.999 96.002c25.333 0 48.167 8.83301 68.5 26.5s30.5 44.167 30.5 79.5c0 30.667 -9.83301 55.167 -29.5 73.5s-43.167 27.5 -70.5 27.5c-28.667 0 -52.5 -9.83301 -71.5 -29.5s-28.5 -44.167 -28.5 -73.5c0 -33.333 10.167 -59 30.5 -77s43.833 -27 70.5 -27z" />
    <glyph glyph-name="nine" unicode="9" 
d="M33 170l150.999 -0.00683594c2 -21.333 9.5 -38 22.5 -50s29.833 -18 50.5 -18c24.667 0 45 5.83301 61 17.5s27.333 28.334 34 50.001s10.834 42.667 12.501 63s2.16699 44.833 1.5 73.5c-35.333 -32 -77.333 -48 -126 -48c-32.667 0 -62 5 -88 15
s-46.667 22.667 -62 38s-28.166 33.166 -38.499 53.499s-17.333 39.666 -21 57.999s-5.5 36.5 -5.5 54.5c0 66.667 22.333 121.5 67 164.5s104.667 64.5 180 64.5c33.333 0 63.166 -4.5 89.499 -13.5s47.833 -20.167 64.5 -33.5s31.167 -30.666 43.5 -51.999
s21.5 -41.166 27.5 -59.499s10.667 -40.166 14 -65.499s5.33301 -45.666 6 -60.999s1 -33.666 1 -54.999c0 -72.667 -6 -133.834 -18 -183.501s-30 -88.667 -54 -117s-51.833 -48.5 -83.5 -60.5s-69.5 -18 -113.5 -18c-14 0 -26.833 0.333008 -38.5 1
s-29.5 4.33398 -53.5 11.001s-44.167 15.834 -60.5 27.501s-31 29.834 -44 54.501s-19.5 54.334 -19.5 89.001zM266.999 372.993c33.333 0 57.666 11.501 72.999 34.501s23 49.5 23 79.5c0 31.333 -8.16699 56.833 -24.5 76.5s-39.166 29.5 -68.499 29.5
c-32.667 0 -57 -10.833 -73 -32.5s-24 -47.5 -24 -77.5c0 -8.66699 1 -18 3 -28s5.66699 -21.833 11 -35.5s15 -24.834 29 -33.501s31 -13 51 -13z" />
    <glyph glyph-name="colon" unicode=":" horiz-adv-x="278" 
d="M76 0v134h126v-134h-126zM76 370v135h126v-135h-126z" />
    <glyph glyph-name="semicolon" unicode=";" horiz-adv-x="278" 
d="M80 370v135h126v-135h-126zM87 133h148l-119 -246h-103z" />
    <glyph glyph-name="less" unicode="&#x3c;" horiz-adv-x="584" 
d="M26 200v134l532 206v-140l-372 -133l372 -133v-141z" />
    <glyph glyph-name="equal" unicode="=" horiz-adv-x="584" 
d="M26 318v129h532v-129h-532zM26 86v129h532v-129h-532z" />
    <glyph glyph-name="greater" unicode="&#x3e;" horiz-adv-x="584" 
d="M559 200l-533 -207v141l372 133l-372 133v140l533 -206v-134z" />
    <glyph glyph-name="question" unicode="?" horiz-adv-x="500" 
d="M256 162h-114v93c0 30.667 12.333 60 37 88l44 49c50.667 57.333 76 105.666 76 144.999c0 8.66699 -1.16699 17.334 -3.5 26.001s-7 19.167 -14 31.5s-19.333 22.333 -37 30s-39.5 11.5 -65.5 11.5c-30 0 -74.333 -8 -133 -24v104c50.667 13.333 107 20 169 20
c42 0 80.167 -6 114.5 -18s63.5 -32.5 87.5 -61.5s36 -64.833 36 -107.5c0 -36.667 -9.33301 -68.667 -28 -96c-20 -28.667 -37.333 -49.667 -52 -63l-57 -51c-26 -23.333 -42.5 -40.833 -49.5 -52.5s-10.5 -26.167 -10.5 -43.5v-81zM139 0v120h120v-120h-120z" />
    <glyph glyph-name="at" unicode="@" horiz-adv-x="975" 
d="M773 135l33.9961 -45.0059c-54.667 -39.333 -106 -67.166 -154 -83.499s-98.333 -24.5 -151 -24.5c-113.333 0 -205.666 34.333 -276.999 103s-107 157.667 -107 267c0 116 39 209.333 117 280s172.667 106 284 106c94.667 0 174.667 -26.5 240 -79.5
s98 -126.833 98 -221.5c0 -71.333 -19.667 -132.166 -59 -182.499s-87.666 -75.5 -144.999 -75.5c-33.333 0 -58.666 10.667 -75.999 32c-10 12.667 -15.667 28.334 -17 47.001c-30 -56.667 -74.333 -85 -133 -85c-39.333 0 -71.5 13.667 -96.5 41
s-37.5 64.666 -37.5 111.999c0 60.667 19.333 115.334 58 164.001s85.667 73 141 73c34.667 0 62 -9 82 -27c10 -9.33301 17.667 -20.666 23 -33.999l13 45h99l-60 -206c-8.66699 -27.333 -13 -47.666 -13 -60.999c0 -11.333 3.33301 -20 10 -26s14.667 -9 24 -9
c28 0 54.667 18.833 80 56.5s38 84.5 38 140.5c0 42 -8.16699 79 -24.5 111s-38 56.833 -65 74.5s-55.667 30.834 -86 39.501s-62.166 13 -95.499 13c-94 0 -173.167 -29.5 -237.5 -88.5s-96.5 -140.167 -96.5 -243.5c0 -94.667 30 -169.667 90 -225s137.667 -83 233 -83
s184.333 31.667 267 95zM410.996 310.994c0 -4.66699 0.501953 -9.66504 1.50195 -14.998s2.83301 -12.333 5.5 -21s7.66699 -15.834 15 -21.501s16.666 -8.5 27.999 -8.5c26.667 0 49 20 67 60c8 17.333 15 37.5 21 60.5s10.167 41.167 12.5 54.5s3.5 21.333 3.5 24
c0 12.667 -4.33301 23.667 -13 33s-20.667 14 -36 14c-26.667 0 -50.834 -18.833 -72.501 -56.5s-32.5 -78.834 -32.5 -123.501z" />
    <glyph glyph-name="A" unicode="A" horiz-adv-x="722" 
d="M266 723h184l251 -723h-156l-52 156h-286l-54 -156h-148zM247 273h207l-100 308z" />
    <glyph glyph-name="B" unicode="B" horiz-adv-x="667" 
d="M68 0l0.000976562 722h270c82 0 141.333 -11.333 178 -34c54 -34.667 81 -86 81 -154c0 -46 -14 -82 -42 -108c-5.33301 -6 -15.833 -14.5 -31.5 -25.5s-32.5 -18.833 -50.5 -23.5v-2c51.333 -9.33301 89.666 -30.5 114.999 -63.5s38 -70.5 38 -112.5
c0 -40 -10 -74.5 -30 -103.5s-45.333 -51.167 -76 -66.5c-37.333 -19.333 -98 -29 -182 -29h-270zM216.001 611l-0.00195312 -182.998h108c12.667 0 22.834 0.166992 30.501 0.5s18.167 2.16602 31.5 5.49902s23.833 8 31.5 14s14.667 15.167 21 27.5s9.5 27.5 9.5 45.5
c0 17.333 -3 32 -9 44s-12.833 20.833 -20.5 26.5s-18.167 10.167 -31.5 13.5s-24.166 5.16602 -32.499 5.49902s-19.5 0.5 -33.5 0.5h-105zM215.999 316.002l0.000976562 -200h105c19.333 0 34 0.166992 44 0.5s23 2.16602 39 5.49902s28 8.16602 36 14.499
s15.333 16 22 29s10 28.833 10 47.5c0 20 -3.66699 36.833 -11 50.5s-15.833 23.834 -25.5 30.501s-23.334 11.834 -41.001 15.501s-32 5.66699 -43 6s-26.5 0.5 -46.5 0.5h-89z" />
    <glyph glyph-name="C" unicode="C" horiz-adv-x="667" 
d="M634 487l-157.999 0.00488281c-10 84.667 -49 127 -117 127c-54.667 0 -95.5 -24.833 -122.5 -74.5s-40.5 -114.5 -40.5 -194.5c0 -12.667 0.333008 -24 1 -34s2.16699 -26.167 4.5 -48.5s6.83301 -41.833 13.5 -58.5s15.167 -33.834 25.5 -51.501
s24.666 -31.334 42.999 -41.001s39.5 -14.5 63.5 -14.5c35.333 0 65.5 11.5 90.5 34.5s38.167 57.167 39.5 102.5h163c-1.33301 -21.333 -3 -38.5 -5 -51.5s-8 -31.333 -18 -55s-24 -44.834 -42 -63.501c-52.667 -54 -123 -81 -211 -81c-60 0 -112 10.333 -156 31
s-78.333 48.667 -103 84s-42.667 73.666 -54 114.999s-17 85.666 -17 132.999c0 115.333 29.833 207.666 89.5 276.999s140.167 104 241.5 104c79.333 0 144 -22.167 194 -66.5s75 -102.166 75 -173.499z" />
    <glyph glyph-name="D" unicode="D" horiz-adv-x="722" 
d="M65 0l-0.000976562 721.001l239 -1c107.333 0 190.333 -21.667 249 -65c42.667 -31.333 73.834 -72.333 93.501 -123s29.5 -104.334 29.5 -161.001c0 -104.667 -24.167 -188 -72.5 -250s-109.5 -99.667 -183.5 -113c-28.667 -5.33301 -72 -8 -130 -8h-225z
M221.999 604.001l-0.000976562 -484.999c22.667 -1.33301 43 -2 61 -2c39.333 0 72 3.16699 98 9.5s49.333 19.833 70 40.5c43.333 43.333 65 111.333 65 204c0 55.333 -10.667 103.166 -32 143.499s-54.666 66.833 -99.999 79.5c-35.333 10 -89.333 13.333 -162 10z" />
    <glyph glyph-name="E" unicode="E" horiz-adv-x="611" 
d="M74 0v723h484v-118h-329v-172h308v-118h-308v-195h340v-120h-495z" />
    <glyph glyph-name="F" unicode="F" 
d="M69 0v722h466v-116h-311v-178h290v-120h-290v-308h-155z" />
    <glyph glyph-name="G" unicode="G" horiz-adv-x="778" 
d="M715 501l-161.001 -0.000976562c-1.33301 30.667 -8 55 -20 73c-23.333 37.333 -63.666 56 -120.999 56c-41.333 0 -76.833 -8.83301 -106.5 -26.5s-51.5 -41.167 -65.5 -70.5s-24 -58.333 -30 -87s-9 -59 -9 -91c0 -86 20 -150.667 60 -194
c37.333 -41.333 94 -62 170 -62c46.667 0 86 4.66699 118 14v152h-140v120h295v-361c-80 -26.667 -168 -40 -264 -40c-139.333 0 -241.666 32 -306.999 96c-64 62.667 -96 152.667 -96 270c0 124.667 35 221.334 105 290.001s161.333 103 274 103
c110.667 0 192.667 -30.333 246 -91c33.333 -38 50.666 -88.333 51.999 -151z" />
    <glyph glyph-name="H" unicode="H" horiz-adv-x="722" 
d="M67 0v723h155v-289h273v289h157v-723h-155v317h-275v-317h-155z" />
    <glyph glyph-name="I" unicode="I" horiz-adv-x="278" 
d="M60 0v725h155v-725h-155z" />
    <glyph glyph-name="J" unicode="J" 
d="M9 234l152 -0.000976562c1.33301 -42 8.33301 -73.833 21 -95.5s34 -32.5 64 -32.5c42 0 68.333 20.333 79 61c4 20 6 57.667 6 113v443h157v-444c0 -61.333 -8 -112.666 -24 -153.999s-45.333 -75 -88 -101c-34 -20.667 -80.667 -31 -140 -31
c-43.333 0 -80.333 6.33301 -111 19s-56.667 35.667 -78 69c-23.333 35.333 -36 86.333 -38 153z" />
    <glyph glyph-name="K" unicode="K" horiz-adv-x="667" 
d="M67 0v721h155v-311l242 313h181l-265 -324l288 -399h-193l-253 368v-368h-155z" />
    <glyph glyph-name="L" unicode="L" 
d="M69 0v722h158v-599h310v-123h-468z" />
    <glyph glyph-name="M" unicode="M" horiz-adv-x="944" 
d="M60 0v723h253l153 -526l165 526h246v-723h-154v620l-197 -620h-128l-193 620v-620h-145z" />
    <glyph glyph-name="N" unicode="N" horiz-adv-x="778" 
d="M72 0v723h224l271 -569v569h144v-723h-213l-280 600v-600h-146z" />
    <glyph glyph-name="O" unicode="O" horiz-adv-x="778" 
d="M42 351c0 50.667 6.16602 98 18.499 142s31.333 84.833 57 122.5s61.667 67.5 108 89.5s100.833 33 163.5 33c111.333 0 196 -32.667 254 -98c61.333 -70 92 -160.667 92 -272c0 -54 -8 -106.667 -24 -158s-38.333 -93 -67 -125c-61.333 -68.667 -147 -103 -257 -103
c-107.333 0 -192.666 33 -255.999 99c-59.333 63.333 -89 153.333 -89 270zM203.999 356c0 -88 17.999 -155.333 53.999 -202c28.667 -38.667 72.334 -58 131.001 -58c61.333 0 106.333 22.333 135 67c32.667 48.667 49 117.667 49 207c0 50.667 -6 93.667 -18 129
c-28.667 85.333 -83.667 128 -165 128c-56.667 0 -101 -20.333 -133 -61c-35.333 -43.333 -53 -113.333 -53 -210z" />
    <glyph glyph-name="P" unicode="P" horiz-adv-x="611" 
d="M65 0v721.001h223c62 0 112.5 -5 151.5 -15s72.167 -31.333 99.5 -64c29.333 -35.333 44 -80.333 44 -135c0 -42 -8.16699 -79.833 -24.5 -113.5s-38.833 -59.834 -67.5 -78.501c-35.333 -22.667 -90 -34 -164 -34h-105v-281h-157zM218 604.001l-0.000976562 -208h62
c14.667 0 26.334 0.166992 35.001 0.5s20.667 2.5 36 6.5s27.5 9.5 36.5 16.5s17.167 18 24.5 33s11 32.833 11 53.5c0 22.667 -4.16699 41.334 -12.5 56.001s-20.333 24.667 -36 30s-28.667 8.66602 -39 9.99902s-23.5 2 -39.5 2h-78z" />
    <glyph glyph-name="Q" unicode="Q" horiz-adv-x="778" 
d="M761 111l-0.000976562 -112.999c-60 1.33301 -119.333 2 -178 2c-5.33301 0 -13.833 -0.333008 -25.5 -1s-26.667 -1.33398 -45 -2.00098s-33.833 -1.33398 -46.5 -2.00098c-65.333 -4 -103.333 -6 -114 -6c-51.333 0 -96.833 9.16699 -136.5 27.5
s-70.5 40.833 -92.5 67.5s-40.167 57.667 -54.5 93s-23.666 67.333 -27.999 96s-6.5 56.334 -6.5 83.001c0 50.667 6.83301 98.334 20.5 143.001s34 85 61 121s63.333 64.5 109 85.5s98.167 31.5 157.5 31.5c96.667 0 175.167 -31.833 235.5 -95.5
s90.5 -153.167 90.5 -268.5c0 -110.667 -36.333 -200.334 -109 -269.001c42.667 8 96.667 10.333 162 7zM193.999 365.001c0 -29.333 2.49902 -57.834 7.49902 -85.501s13.5 -55.667 25.5 -84s30.333 -51.166 55 -68.499s54.334 -26 89.001 -26c29.333 0 55 6 77 18
s39.333 27 52 45s23 39.667 31 65s13.333 49.5 16 72.5s4 47.5 4 73.5c0 78 -15 139.667 -45 185c-28.667 44.667 -72 67 -130 67c-32.667 0 -61.167 -7.33301 -85.5 -22s-43.333 -34.667 -57 -60s-23.667 -53 -30 -83s-9.5 -62.333 -9.5 -97z" />
    <glyph glyph-name="R" unicode="R" horiz-adv-x="667" 
d="M60 0l0.000976562 723.001h277c34.667 0.666992 62 0.333984 82 -0.999023s43.333 -5.83301 70 -13.5s49 -19.167 67 -34.5c42 -36.667 63 -83 63 -139c0 -89.333 -50.333 -148.333 -151 -177c21.333 -2 39.5 -6.33301 54.5 -13s26.5 -13.834 34.5 -21.501
s15 -19.834 21 -36.501s10 -30.5 12 -41.5s4.66699 -28.833 8 -53.5c9.33301 -72 16.666 -118.667 21.999 -140c5.33301 -20 12.666 -37.333 21.999 -52h-171c-1.33301 8.66699 -4.83301 33 -10.5 73l-16.5 113c-5.33301 35.333 -9.33301 57 -12 65
c-4 12.667 -11.167 22.167 -21.5 28.5s-19.166 10 -26.499 11s-17.333 1.5 -30 1.5h-136v-292h-158zM213.001 609.001v-202h125c36 0 62.333 6.66699 79 20c26.667 19.333 40 47.333 40 84c0 38 -12.667 65 -38 81c-10.667 8 -23 12.833 -37 14.5s-35.667 2.5 -65 2.5h-104z
" />
    <glyph glyph-name="S" unicode="S" horiz-adv-x="667" 
d="M35 231l158 -0.000976562c0 -11.333 0.166992 -20.666 0.5 -27.999s2.83301 -18.666 7.5 -33.999s11.167 -27.666 19.5 -36.999s21.333 -18 39 -26s39.167 -12 64.5 -12c42 0 75.333 9.16699 100 27.5s37 42.833 37 73.5c0 29.333 -9.5 49.666 -28.5 60.999
s-55.167 23.333 -108.5 36c-92.667 23.333 -160.167 50.833 -202.5 82.5s-63.5 77.167 -63.5 136.5c0 64.667 24 118.167 72 160.5s119.333 63.5 214 63.5c100 0 172.667 -28.333 218 -85c27.333 -34.667 41 -79.334 41 -134.001h-149c-6 73.333 -45 110 -117 110
c-36 0 -64.833 -9 -86.5 -27s-32.5 -41.667 -32.5 -71c0 -30.667 10.833 -52 32.5 -64s63.167 -25.667 124.5 -41c31.333 -7.33301 56.333 -13.833 75 -19.5s40.334 -14 65.001 -25s43.834 -23 57.501 -36s25.5 -30.167 35.5 -51.5s15 -45.666 15 -72.999
c0 -68 -27.167 -124.167 -81.5 -168.5s-129.833 -66.5 -226.5 -66.5c-38 0 -72.167 3.5 -102.5 10.5s-55 15.5 -74 25.5s-35.5 23.333 -49.5 40s-24.333 31.5 -31 44.5s-11.834 29.167 -15.501 48.5s-5.83398 33.666 -6.50098 42.999s-1 21.333 -1 36z" />
    <glyph glyph-name="T" unicode="T" horiz-adv-x="611" 
d="M229 0v603h-215v120h586v-120h-215v-603h-156z" />
    <glyph glyph-name="U" unicode="U" horiz-adv-x="778" 
d="M72 721l154.998 -0.00195312v-440c0 -20 0.5 -36.5 1.5 -49.5s4.5 -28.5 10.5 -46.5s14.167 -32.333 24.5 -43s25.833 -19.834 46.5 -27.501s45.334 -11.5 74.001 -11.5c66 0 112.667 21 140 63c15.333 22.667 23 63.667 23 123v432h151v-451
c0 -51.333 -9.5 -96.166 -28.5 -134.499s-44.333 -67.833 -76 -88.5s-65.167 -36 -100.5 -46s-72.666 -15 -111.999 -15c-129.333 0 -220 41.667 -272 125c-16 24.667 -26.167 50.334 -30.5 77.001s-6.5 60.334 -6.5 101.001v432z" />
    <glyph glyph-name="V" unicode="V" horiz-adv-x="722" 
d="M12 720h169l189 -567l190 567h153l-266 -720h-169z" />
    <glyph glyph-name="W" unicode="W" horiz-adv-x="1000" 
d="M15 720h160l112 -541l141 541h175l127 -541l117 541h148l-184 -722h-172l-131 552l-141 -552h-176z" />
    <glyph glyph-name="X" unicode="X" horiz-adv-x="722" 
d="M30 723h191l146 -246l156 246h166l-238 -348l252 -375h-190l-161 272l-173 -272h-166l254 374z" />
    <glyph glyph-name="Y" unicode="Y" horiz-adv-x="667" 
d="M16 720h181l149 -329l152 329h159l-244 -457v-263h-153v265z" />
    <glyph glyph-name="Z" unicode="Z" horiz-adv-x="611" 
d="M27 0v132l378 473l-355 -3v118h523v-137l-377 -470l385 6v-119h-554z" />
    <glyph glyph-name="bracketleft" unicode="[" horiz-adv-x="333" 
d="M287 752v-92h-109v-690h109v-93h-229v875h229z" />
    <glyph glyph-name="backslash" unicode="\" horiz-adv-x="278" 
d="M29 718h115l271 -718h-117z" />
    <glyph glyph-name="bracketright" unicode="]" horiz-adv-x="333" 
d="M46 660v92h229v-875h-229v93h109v690h-109z" />
    <glyph glyph-name="asciicircum" unicode="^" horiz-adv-x="584" 
d="M51 264l181 433h117l181 -433h-138l-103 272l-100 -272h-138z" />
    <glyph glyph-name="underscore" unicode="_" horiz-adv-x="500" 
d="M0 -125v50h500v-50h-500z" />
    <glyph glyph-name="grave" unicode="`" horiz-adv-x="278" 
d="M128 730l84 -145h-85l-139 145h140z" />
    <glyph glyph-name="a" unicode="a" 
d="M502 0h-134c-3.33301 20.667 -5 43.667 -5 69c-37.333 -54 -87.666 -81 -150.999 -81c-56 0 -98 13.333 -126 40c-29.333 29.333 -44 66.333 -44 111c0 72 35.667 124.333 107 157c41.333 18.667 108 28 200 28c0 30.667 -2.33301 53 -7 67c-10 28 -32 42 -66 42
c-24.667 0 -43.334 -9.33301 -56.001 -28c-7.33301 -11.333 -11 -26.333 -11 -45h-145c2 53.333 21 93 57 119c38 27.333 89 41 153 41c82.667 0 142.667 -21.667 180 -65c23.333 -28 35 -69.333 35 -124l1 -203c0 -48 4 -90.667 12 -128zM349 238
c-48.667 4 -88.001 -1.33203 -118.001 -15.999s-45 -36.667 -45 -66c0 -18.667 6.33301 -35.334 19 -50.001s30.334 -22 53.001 -22c25.333 0 46.333 9.66699 63 29c12 14.667 19.667 31.167 23 49.5s5 43.5 5 75.5z" />
    <glyph glyph-name="b" unicode="b" horiz-adv-x="611" 
d="M60 0l-0.000976562 721.002h148v-277c34.667 45.333 82.334 68 143.001 68c63.333 0 115.833 -23.833 157.5 -71.5s62.5 -112.834 62.5 -195.501c0 -45.333 -6.16699 -85 -18.5 -119s-28.833 -60.5 -49.5 -79.5s-43 -33.167 -67 -42.5s-49.333 -14 -76 -14
c-70 0 -120.667 27 -152 81c-2 -36.667 -3.66699 -60.334 -5 -71.001h-143zM419.999 240.002c0 115.333 -36.335 173.001 -109.002 173.001s-109 -52 -109 -156c0 -55.333 10.667 -97.5 32 -126.5s49.333 -43.5 84 -43.5c19.333 0 35.833 4.66699 49.5 14
s23.834 19.833 30.501 31.5s11.834 26 15.501 43s5.66699 29.667 6 38s0.5 17.166 0.5 26.499z" />
    <glyph glyph-name="c" unicode="c" horiz-adv-x="500" 
d="M477 326l-145 0.00195312c-6.66699 62 -28.334 93 -65.001 93c-52 0 -78 -53.667 -78 -161c0 -76.667 12.333 -128.334 37 -155.001c10.667 -11.333 24 -17 40 -17c5.33301 0 10.833 1 16.5 3s12.5 5.83301 20.5 11.5s14.833 15.667 20.5 30s9.16699 31.833 10.5 52.5
h146c-3.33301 -65.333 -25 -115 -65 -149c-36.667 -31.333 -84.667 -47 -144 -47c-75.333 0 -132.666 22.333 -171.999 67c-42.667 49.333 -64 115.666 -64 198.999c0 43.333 6.16699 81.666 18.5 114.999s27.333 59 45 77s38 32.5 61 43.5s43.333 18.167 61 21.5
s34.5 5 50.5 5c54 0 101.667 -15.667 143 -47s62.333 -78.666 63 -141.999z" />
    <glyph glyph-name="d" unicode="d" horiz-adv-x="611" 
d="M399 443l0.00195312 278.999h149v-640c0 -29.333 1.33301 -56.666 4 -81.999h-150l-4 73c-14 -25.333 -31 -44.333 -51 -57c-26.667 -17.333 -59.334 -26 -98.001 -26c-67.333 0 -120 22.167 -158 66.5s-57 105.833 -57 184.5c0 82.667 20.5 148.5 61.5 197.5
s94.833 73.5 161.5 73.5c61.333 0 108.666 -23 141.999 -69zM184.002 244.999c0 -46 8.33008 -84.0029 24.9971 -114.003s42.334 -45 77.001 -45c20.667 0 39.334 5.33301 56.001 16s29.334 24.334 38.001 41.001c16 30.667 24 70.334 24 119.001
s-9.83301 86.334 -29.5 113.001s-46.5 40 -80.5 40c-23.333 0 -42.833 -6.16699 -58.5 -18.5s-27 -28.5 -34 -48.5s-11.667 -38 -14 -54s-3.5 -32.333 -3.5 -49z" />
    <glyph glyph-name="e" unicode="e" 
d="M523 215l-338.999 -0.000976562c0 -90 34.333 -135 103 -135c47.333 0 76.666 23.333 87.999 70h135c-3.33301 -43.333 -19.333 -80 -48 -110c-37.333 -39.333 -96.333 -59 -177 -59c-78 0 -137.333 21 -178 63c-43.333 45.333 -65 111 -65 197
c0 110.667 35 190.334 105 239.001c42 28 89.333 42 142 42c41.333 0 80.333 -9.5 117 -28.5s65.667 -50.167 87 -93.5c23.333 -48 33.333 -109.667 30 -185zM189.001 307.999h183.001c0 10 -0.666992 19.5 -2 28.5s-4.5 20.833 -9.5 35.5s-14 26.5 -27 35.5
s-29.5 13.5 -49.5 13.5c-30.667 0 -53.834 -10.667 -69.501 -32s-24.167 -48.333 -25.5 -81z" />
    <glyph glyph-name="f" unicode="f" horiz-adv-x="333" 
d="M75 0l-0.000976562 399.999h-75v105h75v69c0 50.667 12.333 90.167 37 118.5s70.334 42.5 137.001 42.5c25.333 0 52 -1.66699 80 -5v-103c-14.667 2 -25 3 -31 3c-18 0 -32.5 -2 -43.5 -6s-18.667 -10 -23 -18s-7 -14.667 -8 -20s-1.5 -12.666 -1.5 -21.999v-59h94v-105
h-94v-400h-147z" />
    <glyph glyph-name="g" unicode="g" horiz-adv-x="611" 
d="M405 503l138.998 0.00195312c-4.66699 -46.667 -7 -88.334 -7 -125.001v-373c0 -136 -84 -204 -252 -204c-141.333 0 -215.333 54 -222 162h142c6 -46.667 35.333 -70 88 -70c23.333 0 43.333 5.66699 60 17s27.334 27.666 32.001 48.999c4 16 6.33301 56 7 120
c-34.667 -46 -80 -69 -136 -69c-68 0 -120.5 24.667 -157.5 74s-55.5 107.333 -55.5 174c0 68.667 18.833 127.5 56.5 176.5s90.834 73.5 159.501 73.5c61.333 0 108.333 -24 141 -72zM190.998 258.002c0 -12.667 0.666992 -24.501 2 -35.501s4.66602 -26.333 9.99902 -46
s15.5 -35.5 30.5 -47.5s33.833 -18 56.5 -18c24 0 43.833 6 59.5 18s26.334 27.833 32.001 47.5s9.16699 34.834 10.5 45.501s2 21.667 2 33c0 102.667 -33.667 154 -101 154c-30 0 -54.5 -12.333 -73.5 -37s-28.5 -62.667 -28.5 -114z" />
    <glyph glyph-name="h" unicode="h" horiz-adv-x="611" 
d="M69 0v722.001h147v-286c36 50.667 84.667 76 146 76c62.667 0 111.667 -22.667 147 -68c22 -30.667 33 -76.334 33 -137.001v-307h-147v302c0 73.333 -27.667 110 -83 110c-25.333 0 -47.5 -8.16699 -66.5 -24.5s-28.5 -42.5 -28.5 -78.5l1 -309h-149z" />
    <glyph glyph-name="i" unicode="i" horiz-adv-x="278" 
d="M60 593v129h158v-129h-158zM65 0v506h148v-506h-148z" />
    <glyph glyph-name="j" unicode="j" horiz-adv-x="278" 
d="M-2 -194l0.000976562 100.001c15.333 -0.666992 28 1.83301 38 7.5s16.833 14.167 20.5 25.5s6 20.5 7 27.5s1.5 15.5 1.5 25.5v515h148v-552c0 -50.667 -12.5 -88.834 -37.5 -114.501s-67.5 -38.5 -127.5 -38.5c-18.667 0 -35.334 1.33301 -50.001 4zM60.001 593.001
v129h158v-129h-158z" />
    <glyph glyph-name="k" unicode="k" 
d="M67 0v723h147v-426l153 211h167l-173 -220l184 -288h-175l-156 275v-275h-147z" />
    <glyph glyph-name="l" unicode="l" horiz-adv-x="278" 
d="M65 0v723h148v-723h-148z" />
    <glyph glyph-name="m" unicode="m" horiz-adv-x="944" 
d="M68 0l-0.00292969 410.001c0 28 -1.66699 59.667 -5 95h143l5 -65c36.667 50.667 88.667 76 156 76c79.333 0 132.333 -31.667 159 -95c32.667 62.667 86.667 94 162 94c72.667 0 124 -27 154 -81c16.667 -27.333 25 -74 25 -140v-9v-285h-149v297
c0 22 -1.5 40.333 -4.5 55s-11.167 28.167 -24.5 40.5s-32 18.5 -56 18.5c-17.333 0 -31.833 -3.33301 -43.5 -10s-20.667 -14.5 -27 -23.5s-11 -21.5 -14 -37.5s-4.83301 -29.667 -5.5 -41s-1 -26.666 -1 -45.999v-253h-149v300c0 14 -0.666992 25.667 -2 35
s-4.16602 20.666 -8.49902 33.999s-12.666 23.666 -24.999 30.999s-28.166 11 -47.499 11c-22 0 -39.833 -4 -53.5 -12s-23 -19.167 -28 -33.5s-8.16699 -26 -9.5 -35s-2 -20.167 -2 -33.5v-297h-149z" />
    <glyph glyph-name="n" unicode="n" horiz-adv-x="611" 
d="M67 0v415c0 38 -1 68.667 -3 92h142l4 -76c36 58.667 90.667 88 164 88c44 0 78.5 -9.83301 103.5 -29.5s41.833 -41.5 50.5 -65.5c9.33301 -26 14 -76.333 14 -151v-273h-151v314c0 26 -2.66699 44.333 -8 55c-14 28.667 -38 43 -72 43s-59.667 -13 -77 -39
c-12 -17.333 -18 -43 -18 -77v-296h-149z" />
    <glyph glyph-name="o" unicode="o" horiz-adv-x="611" 
d="M42 248c0 32.667 4.5 64.001 13.5 94.001s23 58.5 42 85.5s46.167 48.667 81.5 65s76.666 24.5 123.999 24.5c86.667 0 152 -25.167 196 -75.5s66 -113.5 66 -189.5c0 -76.667 -22.5 -140.834 -67.5 -192.501s-110.833 -77.5 -197.5 -77.5
c-75.333 0 -137.166 23 -185.499 69s-72.5 111.667 -72.5 197zM194 247.001c0 -108 37 -162 111 -162c35.333 0 62.333 13 81 39s28 70.667 28 134c0 106.667 -37 160 -111 160c-72.667 0 -109 -57 -109 -171z" />
    <glyph glyph-name="p" unicode="p" horiz-adv-x="611" 
d="M60 505l144.002 -0.000976562l4 -72c31.333 54.667 82.666 82 153.999 82c65.333 0 116.666 -22.667 153.999 -68s56 -106.666 56 -183.999c0 -76 -19.333 -140 -58 -192s-92.667 -78 -162 -78c-60.667 0 -107.667 21.667 -141 65v-252h-151v699zM314.002 89.999
c34.667 0 61.335 15 80.002 45s28 70.667 28 122c0 18 -1.33301 35.167 -4 51.5s-7.33398 33.5 -14.001 51.5s-17.167 32.5 -31.5 43.5s-31.833 16.5 -52.5 16.5c-30 0 -56.833 -13.333 -80.5 -40s-35.5 -70.667 -35.5 -132c0 -14 0.833008 -27 2.5 -39
s5.5 -28.5 11.5 -49.5s17.167 -37.833 33.5 -50.5s37.166 -19 62.499 -19z" />
    <glyph glyph-name="q" unicode="q" horiz-adv-x="611" 
d="M407 506h146.002c0 -2 -0.5 -16.833 -1.5 -44.5s-1.5 -45.167 -1.5 -52.5v-601h-152v251c-36.667 -44 -83.334 -66 -140.001 -66c-58.667 0 -110.334 22.167 -155.001 66.5s-67 110.833 -67 199.5c0 46.667 6.33301 87.167 19 121.5s29.5 61 50.5 80s43.5 33 67.5 42
s49.333 13.5 76 13.5c68.667 0 119.667 -27.667 153 -83zM187.002 255c0 -56 11 -98.666 33 -127.999c17.333 -24 43.333 -36 78 -36c22.667 0 41.667 5.5 57 16.5s26.5 25.667 33.5 44s11.667 35.333 14 51s3.5 32.167 3.5 49.5s-1.33301 34.166 -4 50.499
s-7.66699 34 -15 53s-19.333 34.333 -36 46s-37 17.5 -61 17.5c-68.667 0 -103 -54.667 -103 -164z" />
    <glyph glyph-name="r" unicode="r" horiz-adv-x="389" 
d="M65 0l0.000976562 381c0 38.667 -2.33301 80.667 -7 126h139l3 -97c6 14 12.167 25.667 18.5 35s15.833 19.833 28.5 31.5s29.667 20.167 51 25.5s46 7.33301 74 6v-133c-35.333 3.33301 -64.5 2 -87.5 -4s-39.333 -16.333 -49 -31s-15.834 -28.5 -18.501 -41.5
s-4 -29.5 -4 -49.5v-249h-148z" />
    <glyph glyph-name="s" unicode="s" horiz-adv-x="500" 
d="M29 146l138.999 -0.00292969c1.33301 -18.667 8.66602 -34.834 21.999 -48.501s34 -20.5 62 -20.5c24.667 0 43.834 5.83301 57.501 17.5s20.5 25.834 20.5 42.501c0 12.667 -4.83301 23.5 -14.5 32.5s-28.167 17.167 -55.5 24.5l-92 25
c-16 4.66699 -29 9.16699 -39 13.5s-23 11.5 -39 21.5s-28.333 24 -37 42s-13 39 -13 63c0 48.667 20.333 87.167 61 115.5s94 42.5 160 42.5c54.667 0 99.834 -12.667 135.501 -38s54.5 -62.333 56.5 -111h-135c-2.66699 40 -26.667 60 -72 60
c-20.667 0 -37.5 -4.5 -50.5 -13.5s-19.5 -21.167 -19.5 -36.5s5 -26.166 15 -32.499s28 -13.166 54 -20.499l91 -25c90 -24.667 135 -71.667 135 -141c0 -47.333 -20.167 -88.166 -60.5 -122.499s-97.5 -51.5 -171.5 -51.5c-76 0 -133.667 20.667 -173 62
c-22.667 24 -35 57 -37 99z" />
    <glyph glyph-name="t" unicode="t" horiz-adv-x="389" 
d="M362 104l-0.00292969 -96.999c-39.333 -10.667 -77.666 -16 -114.999 -16c-28 0 -52.167 3.66699 -72.5 11s-35.166 15.333 -44.499 24s-16.666 20.5 -21.999 35.5s-8.33301 26.5 -9 34.5s-1 18.333 -1 31v277h-97v98h97v99l147 54v-153h120v-98h-120v-228
c0 -14.667 0.5 -25.334 1.5 -32.001s3.5 -14 7.5 -22s10.667 -13.5 20 -16.5s22 -4.5 38 -4.5c15.333 0 32 1 50 3z" />
    <glyph glyph-name="u" unicode="u" horiz-adv-x="611" 
d="M60 505l150.007 0.00195312v-301c0 -12.667 0.166992 -22.5 0.5 -29.5s1.83301 -16.333 4.5 -28s6.66699 -20.834 12 -27.501s13.166 -12.667 23.499 -18s23.166 -8 38.499 -8c18.667 0 34.167 3 46.5 9s21.666 12.833 27.999 20.5s11.166 19.667 14.499 36
s5.16602 30 5.49902 41s0.5 27.833 0.5 50.5v255h152v-333c0.666992 -31.333 1.16699 -57.5 1.5 -78.5s0.666016 -34.833 0.999023 -41.5s0.5 -11.667 0.5 -15c0.666992 -12 2 -24.333 4 -37h-144l-5 67c-36.667 -53.333 -86.334 -80 -149.001 -80
c-32.667 0 -62.5 6.5 -89.5 19.5s-47.833 29.167 -62.5 48.5c-22 27.333 -33 72.666 -33 135.999v314z" />
    <glyph glyph-name="v" unicode="v" 
d="M7 505h158l114 -343l116 343h143l-182 -505h-164z" />
    <glyph glyph-name="w" unicode="w" horiz-adv-x="889" 
d="M5 505h157l93 -381l107 381h163l106 -381l99 381h147l-173 -505h-161l-104 374l-106 -374h-163z" />
    <glyph glyph-name="x" unicode="x" 
d="M16 505h175l95 -165l99 165h154l-164 -246l169 -259h-175l-102 185l-103 -185h-155l169 271z" />
    <glyph glyph-name="y" unicode="y" 
d="M14 505h160l111 -350l113 350h147l-191 -496l-61 -201h-149l64 190z" />
    <glyph glyph-name="z" unicode="z" horiz-adv-x="500" 
d="M32 0v130l256 276h-249v99h414v-127l-256 -276h266v-102h-431z" />
    <glyph glyph-name="braceleft" unicode="{" horiz-adv-x="333" 
d="M103 449l0.00195312 35c0 20 0.333008 36 1 48s2.66699 27 6 45s8 32.667 14 44s15 23.666 27 36.999s26.5 24 43.5 32s38.5 15 64.5 21s55.667 10 89 12v-82c-21.333 -2 -39.333 -6.66699 -54 -14s-25.667 -15.333 -33 -24s-12.833 -20.834 -16.5 -36.501
s-5.83398 -28 -6.50098 -37s-1 -22.167 -1 -39.5v-36c0 -52 -11.167 -94.167 -33.5 -126.5s-63.833 -51.166 -124.5 -56.499c54 -6.66699 93 -22.667 117 -48c27.333 -27.333 41 -72.333 41 -135v-37c0 -16.667 0.333008 -29.667 1 -39s2.83398 -21.833 6.50098 -37.5
s9.16699 -27.834 16.5 -36.501s18.333 -16.667 33 -24s32.667 -11.666 54 -12.999v-82c-90 4 -155 25 -195 63c-18 16 -30.833 36 -38.5 60s-11.5 62.667 -11.5 116v35c0 14 -0.333008 25 -1 33s-3 18.5 -7 31.5s-9.83301 23.333 -17.5 31s-19.334 15.334 -35.001 23.001
s-34.834 13.167 -57.501 16.5v86c34 3.33301 61.667 14.666 83 33.999c23.333 20.667 35 54.334 35 101.001z" />
    <glyph glyph-name="bar" unicode="|" horiz-adv-x="278" 
d="M73 750h132v-1000h-132v1000z" />
    <glyph glyph-name="braceright" unicode="}" horiz-adv-x="333" 
d="M230 93l0.000976562 -35c0 -20 -0.333008 -35.833 -1 -47.5s-2.5 -26.667 -5.5 -45s-7.66699 -33.166 -14 -44.499s-15.333 -23.666 -27 -36.999s-26.167 -24 -43.5 -32s-39 -15 -65 -21s-55.667 -10 -89 -12v82c21.333 1.33301 39.333 5.66602 54 12.999
s25.667 15.333 33 24s12.833 20.667 16.5 36s5.83398 27.666 6.50098 36.999s1 22.666 1 39.999v37c0 62 13.667 107 41 135c24 25.333 63 41.333 117 48c-16 1.33301 -28.833 2.83301 -38.5 4.5s-22.334 6.66699 -38.001 15s-29.834 19.5 -42.501 33.5
c-13.333 15.333 -23.166 32.166 -29.499 50.499s-9.5 44.833 -9.5 79.5v36c0 17.333 -0.333008 30.5 -1 39.5s-2.83398 21.333 -6.50098 37s-9.16699 27.834 -16.5 36.501s-18.333 16.667 -33 24s-32.667 12 -54 14v82c32.667 -2 62 -6 88 -12s47.5 -12.833 64.5 -20.5
s31.5 -18.167 43.5 -31.5s21.167 -25.666 27.5 -36.999s11.166 -25.833 14.499 -43.5s5.33301 -32.834 6 -45.501s1 -29 1 -49v-35c0 -45.333 10.667 -78.666 32 -99.999c18.667 -18 47.334 -29.667 86.001 -35v-86c-27.333 -4.66699 -49.5 -11.667 -66.5 -21
s-29 -21.166 -36 -35.499s-11.333 -26.833 -13 -37.5s-2.5 -24.334 -2.5 -41.001z" />
    <glyph glyph-name="asciitilde" unicode="~" horiz-adv-x="584" 
d="M102 173l-83.9971 -0.000976562c3.33301 58 19.5 104.167 48.5 138.5s64.5 51.5 106.5 51.5c15.333 0 50.666 -8.33301 105.999 -25c79.333 -24.667 127.666 -37 144.999 -37c32.667 0 52 20 58 60h85c-2 -22 -5.83301 -43.167 -11.5 -63.5s-14 -40.666 -25 -60.999
s-26.833 -36.5 -47.5 -48.5s-44.667 -18 -72 -18c-21.333 0 -81 15.667 -179 47c-36.667 11.333 -60.334 17 -71.001 17c-16 0 -29.167 -5.66699 -39.5 -17s-16.833 -26 -19.5 -44z" />
    <glyph glyph-name="uni00A0" unicode="&#xa0;" horiz-adv-x="278" 
 />
    <glyph glyph-name="exclamdown" unicode="&#xa1;" horiz-adv-x="389" 
d="M149 337h103l19 -527h-134zM264 534v-134h-127v134h127z" />
    <glyph glyph-name="cent" unicode="&#xa2;" 
d="M438 637l-35.9971 -142.999c68.667 -26 103 -82 103 -168h-144c-3.33301 62 -24.666 93 -63.999 93c-17.333 0 -31.833 -6.16699 -43.5 -18.5s-19.834 -28.5 -24.501 -48.5s-7.83398 -37.167 -9.50098 -51.5s-2.5 -29.166 -2.5 -44.499
c0 -28.667 2.16699 -55.167 6.5 -79.5s12.666 -45.5 24.999 -63.5s27.5 -27 45.5 -27c6 0 12.167 1.16699 18.5 3.5s13.333 6.5 21 12.5s14.167 16 19.5 30s8.66602 31 9.99902 51h146c-0.666992 -12 -1.5 -21.333 -2.5 -28s-3.5 -17.834 -7.5 -33.501
s-9 -28.834 -15 -39.501s-15.167 -22.667 -27.5 -36s-26.833 -24.333 -43.5 -33c-40 -21.333 -86.333 -29.666 -139 -24.999l-34 -136h-68l37 149c-37.333 10.667 -71 37.5 -101 80.5s-45 99.167 -45 168.5c0 79.333 20.833 143.166 62.5 191.499s101.167 72.5 178.5 72.5
c12.667 0 23.667 -0.666992 33 -2l32 125h69z" />
    <glyph glyph-name="sterling" unicode="&#xa3;" 
d="M30 0l0.000976562 116.001h73v207h-84v112h85v88c0 72.667 24.333 125.667 73 159c41.333 28.667 94 43 158 43c35.333 0 66 -4.5 92 -13.5s45.667 -19.333 59 -31s24.166 -27.334 32.499 -47.001s13.5 -35.5 15.5 -47.5s4 -27.667 6 -47h-150
c-2.66699 56.667 -24.667 85 -66 85c-44.667 0 -67 -29 -67 -87v-102h169v-112h-169v-207h264v-116h-491z" />
    <glyph glyph-name="currency" unicode="&#xa4;" 
d="M20 169l67.001 67c-21.333 36 -32 73.333 -32 112c0 36 10.667 73.667 32 113l-68 67l78 78l67 -67c41.333 20.667 78.333 31 111 31c35.333 0 73.666 -10.667 114.999 -32l66 67l77 -77l-66 -67c20.667 -38 31 -75.667 31 -113c0 -38 -10.333 -75.667 -31 -113l67 -66
l-78 -78l-67 67c-36.667 -20.667 -74 -31 -112 -31c-37.333 0 -75 10.333 -113 31l-67 -67zM277.001 454c-29.333 0 -54.333 -10.333 -75 -31s-31 -45.667 -31 -75s10.333 -54.333 31 -75s45.667 -31 75 -31c28.667 0 53.5 10.333 74.5 31s31.5 45.667 31.5 75
s-10.333 54.333 -31 75s-45.667 31 -75 31z" />
    <glyph glyph-name="yen" unicode="&#xa5;" 
d="M204 0v137h-163v74h163v71h-163v74h125l-166 364h181l108 -329l111 329h160l-164 -364h119v-74h-159v-70h159v-74h-158l-1 -138h-152z" />
    <glyph glyph-name="brokenbar" unicode="&#xa6;" horiz-adv-x="278" 
d="M73 675h132v-350h-132v350zM73 175h132v-350h-132v350z" />
    <glyph glyph-name="section" unicode="&#xa7;" 
d="M90 10l3 112.001c53.333 -28.667 101 -43 143 -43c24 0 44 4.33301 60 13s24 22 24 40c0 10 -3.5 18.833 -10.5 26.5s-13.667 13 -20 16s-15.5 6.5 -27.5 10.5l-88 31c-34 12 -59.5 30.333 -76.5 55s-25.5 51 -25.5 79c0 25.333 7.5 49.666 22.5 72.999
s37.833 41 68.5 53c-50.667 22 -76 59.333 -76 112c0 43.333 17.5 77.5 52.5 102.5s81.5 37.5 139.5 37.5c49.333 0 100.666 -10 153.999 -30l-3 -103c-59.333 26 -108 39 -146 39c-20 0 -34.667 -4 -44 -12s-14 -18.333 -14 -31c0 -21.333 15 -38.333 45 -51l88 -29
c68 -22.667 102 -65.667 102 -129c0 -57.333 -27.667 -99 -83 -125c56 -28.667 84 -68.667 84 -120c0 -46.667 -18.667 -84.5 -56 -113.5s-85.666 -43.5 -144.999 -43.5c-54 0 -111 10 -171 30zM267 292.001c24 8.66699 41.5 20.667 52.5 36s16.5 30.333 16.5 45
c0 36 -24.667 58.333 -74 67c-47.333 -14 -71 -38.667 -71 -74c0 -33.333 25.333 -58 76 -74z" />
    <glyph glyph-name="dieresis" unicode="&#xa8;" horiz-adv-x="278" 
d="M172 599v118h102v-118h-102zM0 599v118h102v-118h-102z" />
    <glyph glyph-name="copyright" unicode="&#xa9;" horiz-adv-x="800" 
d="M398 738c104 0 193.001 -36.667 267.001 -110s111 -162.666 111 -267.999c0 -104.667 -36.833 -193.834 -110.5 -267.501s-162.834 -110.5 -267.501 -110.5c-104 0 -192.833 36.833 -266.5 110.5s-110.5 162.834 -110.5 267.501c0 105.333 37 194.666 111 267.999
s162.667 110 266 110zM398.001 676c-86.667 0 -161 -30.833 -223 -92.5s-93 -136.167 -93 -223.5s30.833 -161.833 92.5 -223.5s136.167 -92.5 223.5 -92.5c88 0 162.833 31 224.5 93s92.5 136.333 92.5 223c0 87.333 -31 161.833 -93 223.5s-136.667 92.5 -224 92.5z
M581.001 439l-101.997 0.00390625c-0.666992 9.33301 -2.16699 18.666 -4.5 27.999s-9.66602 19.833 -21.999 31.5s-28.5 17.5 -48.5 17.5s-37.167 -4.83301 -51.5 -14.5s-24.833 -20.5 -31.5 -32.5s-11.834 -26.833 -15.501 -44.5s-5.66699 -30.667 -6 -39
s-0.5 -17.5 -0.5 -27.5c0 -12.667 0.666992 -24.834 2 -36.501s4.66602 -27.834 9.99902 -48.501s15.666 -37.334 30.999 -50.001s34.666 -19 57.999 -19c20.667 0 39 6.83301 55 20.5s24.333 34.167 25 61.5h105c-4 -45.333 -19 -80.333 -45 -105
c-33.333 -30.667 -77.333 -46 -132 -46c-73.333 0 -127 21 -161 63s-51 94 -51 156c0 69.333 19.167 125 57.5 167s89.833 63 154.5 63c50.667 0 92 -13.167 124 -39.5s48.333 -61.5 49 -105.5z" />
    <glyph glyph-name="ordfeminine" unicode="&#xaa;" horiz-adv-x="334" 
d="M318 392l-87.002 0.00195312c-2 13.333 -3 27.333 -3 42c-23.333 -32.667 -56 -49 -98 -49c-39.333 0 -67.666 9.16699 -84.999 27.5s-26 39.166 -26 62.499c0 22.667 7.16699 43 21.5 61s33.833 30.667 58.5 38c29.333 8 69.333 12 120 12c0 12.667 -0.5 22.667 -1.5 30
s-5.16699 15.166 -12.5 23.499s-18.333 12.5 -33 12.5c-11.333 0 -21.5 -3.33301 -30.5 -10s-13.5 -18 -13.5 -34h-94c0 24.667 7.83301 44.5 23.5 59.5s32.834 24.833 51.501 29.5s39 7 61 7c93.333 0 140 -37.667 140 -113v-122c0 -28 2.66699 -53.667 8 -77z
M218.998 535.002c-31.333 2 -56.833 -1.16699 -76.5 -9.5s-29.5 -21.833 -29.5 -40.5c0 -12 4.5 -22 13.5 -30s20.5 -12 34.5 -12c38.667 0 58 30.667 58 92z" />
    <glyph glyph-name="guillemotleft" unicode="&#xab;" 
d="M137 56l-109 196l109 190h132l-95 -190l95 -196h-132zM380 56l-109 196l109 190h132l-95 -190l95 -196h-132z" />
    <glyph glyph-name="logicalnot" unicode="&#xac;" horiz-adv-x="584" 
d="M24 318v130h533v-363h-134v233h-399z" />
    <glyph glyph-name="uni00AD" unicode="&#xad;" horiz-adv-x="333" 
d="M44 208v113h248v-113h-248z" />
    <glyph glyph-name="registered" unicode="&#xae;" horiz-adv-x="800" 
d="M400 738c103.333 0 192.165 -36.5 266.498 -109.5s111.5 -162.5 111.5 -268.5c0 -104 -37 -193 -111 -267s-163 -111 -267 -111c-103.333 0 -192.166 36.833 -266.499 110.5s-111.5 162.834 -111.5 267.501c0 105.333 37.333 194.666 112 267.999
s163.334 110 266.001 110zM398.999 677c-86.667 0 -161 -30.668 -223 -92.001s-93 -136 -93 -224s30.833 -163 92.5 -225s136.167 -93 223.5 -93s162.166 31.333 224.499 94s93.5 137.334 93.5 224.001c0 87.333 -31.167 161.833 -93.5 223.5s-137.166 92.5 -224.499 92.5z
M257.999 147.999l0.000976562 424h146c14.667 0 26.5 -0.166992 35.5 -0.5s21.5 -2.5 37.5 -6.5s28.667 -9.66699 38 -17s17.833 -18.5 25.5 -33.5s11.5 -33.167 11.5 -54.5c0 -18 -2.5 -33.667 -7.5 -47s-12.333 -23.666 -22 -30.999s-17.667 -12.5 -24 -15.5
s-15.166 -6.5 -26.499 -10.5c11.333 -0.666992 21 -3 29 -7s14.167 -8 18.5 -12s8.16602 -11.167 11.499 -21.5s5.5 -18.333 6.5 -24s2.5 -16.167 4.5 -31.5c7.33301 -62.667 14.666 -100 21.999 -112h-90l-5 41l-7.5 61.5c-2.33301 19 -3.5 29.5 -3.5 31.5
c-3.33301 13.333 -8 22.666 -14 27.999s-16 8 -30 8h-74v-170h-82zM338 503.999v-117.999h66c24 0 40.667 6.16699 50 18.5s14 26.166 14 41.499c0 13.333 -2 24.333 -6 33s-9.83301 14.667 -17.5 18s-14 5.33301 -19 6s-11.5 1 -19.5 1h-68z" />
    <glyph glyph-name="macron" unicode="&#xaf;" horiz-adv-x="278" 
d="M306 624h-342v68h342v-68z" />
    <glyph glyph-name="degree" unicode="&#xb0;" horiz-adv-x="400" 
d="M198 708c46.667 0 86.5 -16.5 119.5 -49.5s49.5 -72.833 49.5 -119.5c0 -47.333 -16.5 -87.333 -49.5 -120s-72.833 -49 -119.5 -49s-86.5 16.5 -119.5 49.5s-49.5 72.833 -49.5 119.5s16.667 86.5 50 119.5s73 49.5 119 49.5zM198 605
c-18 0 -33.5 -6.49902 -46.5 -19.499s-19.5 -28.5 -19.5 -46.5c0 -18.667 6.5 -34.334 19.5 -47.001s28.5 -19 46.5 -19c18.667 0 34.5 6.5 47.5 19.5s19.5 28.5 19.5 46.5s-6.5 33.5 -19.5 46.5s-28.833 19.5 -47.5 19.5z" />
    <glyph glyph-name="plusminus" unicode="&#xb1;" horiz-adv-x="584" 
d="M225 131v149h-199v130h199v156h134v-156h199v-130h-199v-149h-134zM26 -33v130h532v-130h-532z" />
    <glyph glyph-name="twosuperior" unicode="&#xb2;" horiz-adv-x="333" 
d="M112 585l-98.9971 0.000976562c0 31.333 8.66699 57.333 26 78c28 30.667 71.667 46 131 46c46.667 0 83.667 -10.5 111 -31.5s41 -48.5 41 -82.5c0 -24 -6 -45.5 -18 -64.5s-36.333 -45.5 -73 -79.5c-30 -28.667 -71 -62.334 -123 -101.001
c123.333 2.66699 195.666 4 216.999 4v-69h-318v84l117 99c35.333 29.333 62.666 56.333 81.999 81c12 16 18 31.333 18 46c0 14 -5 26 -15 36s-22.667 15 -38 15c-18.667 0 -32.834 -5.83301 -42.501 -17.5s-15.167 -26.167 -16.5 -43.5z" />
    <glyph glyph-name="threesuperior" unicode="&#xb3;" horiz-adv-x="333" 
d="M6 395h98.9971c2.66699 -37.333 22.334 -56 59.001 -56c15.333 0 28.833 4.66699 40.5 14s17.5 23.666 17.5 42.999c0 14.667 -3 26.5 -9 35.5s-15.5 15.333 -28.5 19s-24.167 5.83398 -33.5 6.50098s-22.666 1 -39.999 1v70c15.333 0 28.333 0.666992 39 2
s22.167 4 34.5 8s21.833 10.333 28.5 19s10 19.667 10 33c0 16 -5.5 28.333 -16.5 37s-24.5 13 -40.5 13c-16.667 0 -30.167 -4.83301 -40.5 -14.5s-15.166 -22.167 -14.499 -37.5h-99c3.33301 32 12 55.667 26 71c28 30.667 70.667 46 128 46
c48 0 85.167 -11.667 111.5 -35s39.5 -49.666 39.5 -78.999c0 -46.667 -29 -78.334 -87 -95.001c60.667 -16.667 91 -50 91 -100c0 -36 -15.667 -65.667 -47 -89s-70.333 -35 -117 -35c-58.667 0 -100 14 -124 42c-18 20.667 -27 47.667 -27 81z" />
    <glyph glyph-name="acute" unicode="&#xb4;" horiz-adv-x="278" 
d="M289 730l-137 -145h-80l83 145h134z" />
    <glyph glyph-name="mu" unicode="&#xb5;" horiz-adv-x="611" 
d="M70 -212l0.998047 717.001h128v-244c0 -26.667 1 -48.5 3 -65.5s6 -33.667 12 -50s15.667 -28.333 29 -36s30.333 -11.5 51 -11.5c18 0 33.5 3.66699 46.5 11s22.667 15.833 29 25.5s11.333 22.5 15 38.5s5.83398 29.833 6.50098 41.5s1 26.167 1 43.5v247h129v-505h-110
v60c-29.333 -46 -67.333 -69 -114 -69c-19.333 0 -36.5 3.33301 -51.5 10s-25.167 12.667 -30.5 18s-11.666 12.666 -18.999 21.999v-253h-126z" />
    <glyph glyph-name="paragraph" unicode="&#xb6;" 
d="M571 609l-51 0.000976562v-796h-125v796h-95v-796h-125v425c-54 4.66699 -96.333 21 -127 49c-46.667 42 -70 100.333 -70 175c0 31.333 5 61.5 15 90.5s25.167 55.667 45.5 80s48 43.666 83 57.999s75.167 21.5 120.5 21.5h329v-103z" />
    <glyph glyph-name="periodcentered" unicode="&#xb7;" horiz-adv-x="278" 
d="M74 213v133h127v-133h-127z" />
    <glyph glyph-name="cedilla" unicode="&#xb8;" horiz-adv-x="278" 
d="M15 -195l21.001 41.999c27.333 -12 50.666 -18 69.999 -18c16.667 0 30 3.5 40 10.5s15 16.167 15 27.5c0 8.66699 -3.5 17 -10.5 25s-18.167 12 -33.5 12c-12 0 -25.667 -3 -41 -9l-20 21l64 90h47l-48 -64c14.667 2.66699 26.334 4 35.001 4
c29.333 0 50.666 -7.66699 63.999 -23s20 -31.666 20 -48.999c0 -22.667 -7.66699 -41.167 -23 -55.5s-31.833 -23.833 -49.5 -28.5s-35.5 -7 -53.5 -7c-32.667 0 -65 7.33301 -97 22z" />
    <glyph glyph-name="onesuperior" unicode="&#xb9;" horiz-adv-x="333" 
d="M48 553v84c43.333 16.667 83.333 37.667 120 63h84v-419h-98v326c-36 -24 -71.333 -42 -106 -54z" />
    <glyph glyph-name="ordmasculine" unicode="&#xba;" horiz-adv-x="367" 
d="M14 541c0 49.333 15.167 88.499 45.5 117.499s71.833 43.5 124.5 43.5c54.667 0 96.667 -14.667 126 -44s44 -67.666 44 -114.999c0 -46 -14.833 -84.5 -44.5 -115.5s-72.167 -46.5 -127.5 -46.5c-58 0 -100.5 15.833 -127.5 47.5s-40.5 69.167 -40.5 112.5zM113 539.999
c0 -64.667 23.667 -97 71 -97c48 0 72 34 72 102c0 65.333 -23.667 98 -71 98c-48 0 -72 -34.333 -72 -103z" />
    <glyph glyph-name="guillemotright" unicode="&#xbb;" 
d="M164 56h-132l95 189l-95 197h132l109 -197zM407 56h-132l95 189l-95 197h132l109 -197z" />
    <glyph glyph-name="onequarter" unicode="&#xbc;" horiz-adv-x="834" 
d="M665 91h-179v81l182 247h98l-2 -259h62v-69h-63v-91h-98v91zM674 315l-115 -157h111zM142 -28l416 753h83l-417 -753h-82zM9 553v84c43.333 16.667 83.333 37.667 120 63h84v-419h-98v326c-36 -24 -71.333 -42 -106 -54z" />
    <glyph glyph-name="onehalf" unicode="&#xbd;" horiz-adv-x="834" 
d="M140 -28l417 753h82l-417 -753h-82zM22 553v84c43.333 16.667 83.333 37.667 120 63h84v-419h-98v326c-36 -24 -71.333 -42 -106 -54zM598 300l-99 0.000976562c0 32 9 58 27 78c26 30.667 69.333 46 130 46c46.667 0 83.667 -10.5 111 -31.5s41 -48.5 41 -82.5
c0 -23.333 -6 -44.5 -18 -63.5s-36.333 -45.833 -73 -80.5c-24 -23.333 -65 -57 -123 -101c26.667 1.33301 99 2.66602 217 3.99902v-69h-318v85l118 98c34 28.667 61 55.667 81 81c12 16 18 31.333 18 46c0 14 -4.83301 26 -14.5 36s-22.167 15 -37.5 15
c-19.333 0 -33.833 -5.83301 -43.5 -17.5s-15.167 -26.167 -16.5 -43.5z" />
    <glyph glyph-name="threequarters" unicode="&#xbe;" horiz-adv-x="834" 
d="M653 91h-179v81l182 247h99l-3 -259h62v-69h-62v-91h-99v91zM655 315l-115 -157h111l3 111c0 26 0.333008 41.333 1 46zM186 -28l416 753h82l-416 -753h-82zM24 395h98l3 -15c0.666992 -3.33301 3 -9 7 -17s10.167 -14 18.5 -18s18.833 -6 31.5 -6
c15.333 0 28.666 4.66699 39.999 14s17 23.666 17 42.999c0 14.667 -3 26.5 -9 35.5s-15.5 15.333 -28.5 19s-24.167 5.83398 -33.5 6.50098s-22.666 1 -39.999 1v70c15.333 0 28.5 0.666992 39.5 2s22.667 4 35 8s21.833 10.333 28.5 19s10 19.667 10 33
c0 16 -5.5 28.333 -16.5 37s-24.5 13 -40.5 13c-16.667 0 -30.167 -4.83301 -40.5 -14.5s-15.5 -22.167 -15.5 -37.5h-98c3.33301 32 12 55.667 26 71c28 30.667 70.667 46 128 46c48 0 85.167 -11.667 111.5 -35s39.5 -49.666 39.5 -78.999
c0 -46.667 -29 -78.334 -87 -95.001c60.667 -16.667 91 -50 91 -100c0 -36 -15.667 -65.667 -47 -89s-70.333 -35 -117 -35c-58.667 0 -100 14 -124 42c-18 20.667 -27 47.667 -27 81z" />
    <glyph glyph-name="questiondown" unicode="&#xbf;" horiz-adv-x="500" 
d="M239 366l113.001 0.000976562v-93c0 -30.667 -12.333 -60 -37 -88l-44 -49c-50.667 -58 -76 -106.333 -76 -145c0 -8.66699 1.16699 -17.5 3.5 -26.5s7.16602 -19.5 14.499 -31.5s19.666 -21.833 36.999 -29.5s39 -11.5 65 -11.5c30 0 74.333 8 133 24v-105
c-52 -12.667 -108 -19 -168 -19c-66 0 -122.167 15.5 -168.5 46.5s-69.5 77.833 -69.5 140.5c0 38 9 69.667 27 95c20.667 29.333 38.334 50.666 53.001 63.999l56 51c26 23.333 42.667 40.833 50 52.5s11 26.167 11 43.5v81zM355.001 528.001v-120h-120v120h120z" />
    <glyph glyph-name="Agrave" unicode="&#xc0;" horiz-adv-x="722" 
d="M266 723h184l251 -723h-156l-52 156h-286l-54 -156h-148zM247 273h207l-100 308zM350 918l84 -145h-85l-139 145h140z" />
    <glyph glyph-name="Aacute" unicode="&#xc1;" horiz-adv-x="722" 
d="M266 723h184l251 -723h-156l-52 156h-286l-54 -156h-148zM247 273h207l-100 308zM511 918l-137 -145h-80l83 145h134z" />
    <glyph glyph-name="Acircumflex" unicode="&#xc2;" horiz-adv-x="722" 
d="M266 723h184l251 -723h-156l-52 156h-286l-54 -156h-148zM247 273h207l-100 308zM200 773l110 145h103l104 -145h-89l-68 85l-70 -85h-90z" />
    <glyph glyph-name="Atilde" unicode="&#xc3;" horiz-adv-x="722" 
d="M266 723h184l251 -723h-156l-52 156h-286l-54 -156h-148zM247 273h207l-100 308zM232 781l-52.001 0.000976562c5.33301 37.333 18.833 67.166 40.5 89.499s47.5 33.5 77.5 33.5c18.667 0 35.334 -3.66699 50.001 -11l57 -22c12 -4 23.333 -6 34 -6
c25.333 0 41 15.333 47 46h51c-4.66699 -41.333 -18 -72.333 -40 -93c-19.333 -19.333 -43.333 -29 -72 -29c-14.667 0 -32 3.66699 -52 11l-43 16c-20 6.66699 -35 10 -45 10c-25.333 0 -43 -15 -53 -45z" />
    <glyph glyph-name="Adieresis" unicode="&#xc4;" horiz-adv-x="722" 
d="M266 723h184l251 -723h-156l-52 156h-286l-54 -156h-148zM247 273h207l-100 308zM394 777v118h102v-118h-102zM222 777v118h102v-118h-102z" />
    <glyph glyph-name="Aring" unicode="&#xc5;" horiz-adv-x="722" 
d="M266 723h184l251 -723h-156l-52 156h-286l-54 -156h-148zM247 273h207l-100 308zM361 938c28.667 0 52.667 -10 72 -30s29 -44 29 -72s-9.83301 -52 -29.5 -72s-43.5 -30 -71.5 -30c-27.333 0 -51 10 -71 30s-30 44 -30 72s9.83301 52 29.5 72s43.5 30 71.5 30zM361 890
c-14.667 0 -27.1689 -5.33301 -37.502 -16s-15.5 -23.334 -15.5 -38.001s5.16699 -27.167 15.5 -37.5s22.833 -15.5 37.5 -15.5s27.334 5.16699 38.001 15.5s16 22.833 16 37.5s-5.16699 27.334 -15.5 38.001s-23.166 16 -38.499 16z" />
    <glyph glyph-name="AE" unicode="&#xc6;" horiz-adv-x="1000" 
d="M-8 0l400 721h547v-117h-335l26 -178h291v-116h-275l28 -190h274v-120h-416l-22 157h-272l-79 -157h-167zM299 271h196l-42 314z" />
    <glyph glyph-name="Ccedilla" unicode="&#xc7;" horiz-adv-x="667" 
d="M477 234l163.002 0.000976562c-1.33301 -18 -3 -33.333 -5 -46s-6.33301 -29.5 -13 -50.5s-17.834 -41 -33.501 -60s-35.5 -36.167 -59.5 -51.5c-46 -28.667 -100.667 -43 -164 -43l-34 -45c14.667 2.66699 26.667 4 36 4c29.333 0 50.5 -7.5 63.5 -22.5
s19.5 -31.5 19.5 -49.5c0 -22.667 -7.66699 -41.167 -23 -55.5s-31.833 -23.833 -49.5 -28.5s-35.5 -7 -53.5 -7c-32.667 0 -65 7.33301 -97 22l21 42c28.667 -12 52 -18 70 -18c16.667 0 30.167 3.5 40.5 10.5s15.5 16.167 15.5 27.5c0 8.66699 -3.66699 17 -11 25
s-18.666 12 -33.999 12c-12.667 0 -26.334 -3 -41.001 -9l-20 21l52 74c-85.333 8 -151.333 38.333 -198 91c-58.667 66.667 -88 156.334 -88 269.001c0 115.333 29.833 207.666 89.5 276.999s140.167 104 241.5 104c79.333 0 144 -22.167 194 -66.5
s75 -102.166 75 -173.499h-158c-10 84.667 -49 127 -117 127c-54.667 0 -95.5 -24.833 -122.5 -74.5s-40.5 -114.5 -40.5 -194.5c0 -12.667 0.333008 -24 1 -34s2.16699 -26.167 4.5 -48.5s6.83301 -41.833 13.5 -58.5s15.167 -33.834 25.5 -51.501
s24.666 -31.334 42.999 -41.001s39.5 -14.5 63.5 -14.5c35.333 0 65.5 11.5 90.5 34.5s38.167 57.167 39.5 102.5z" />
    <glyph glyph-name="Egrave" unicode="&#xc8;" horiz-adv-x="611" 
d="M74 0v723h484v-118h-329v-172h308v-118h-308v-195h340v-120h-495zM295 918l84 -145h-85l-139 145h140z" />
    <glyph glyph-name="Eacute" unicode="&#xc9;" horiz-adv-x="611" 
d="M74 0v723h484v-118h-329v-172h308v-118h-308v-195h340v-120h-495zM456 918l-137 -145h-80l83 145h134z" />
    <glyph glyph-name="Ecircumflex" unicode="&#xca;" horiz-adv-x="611" 
d="M74 0v723h484v-118h-329v-172h308v-118h-308v-195h340v-120h-495zM145 773l110 145h103l104 -145h-89l-68 85l-70 -85h-90z" />
    <glyph glyph-name="Edieresis" unicode="&#xcb;" horiz-adv-x="611" 
d="M74 0v723h484v-118h-329v-172h308v-118h-308v-195h340v-120h-495zM339 777v118h102v-118h-102zM167 777v118h102v-118h-102z" />
    <glyph glyph-name="Igrave" unicode="&#xcc;" horiz-adv-x="278" 
d="M60 0v725h155v-725h-155zM128 918l84 -145h-85l-139 145h140z" />
    <glyph glyph-name="Iacute" unicode="&#xcd;" horiz-adv-x="278" 
d="M60 0v725h155v-725h-155zM289 918l-137 -145h-80l83 145h134z" />
    <glyph glyph-name="Icircumflex" unicode="&#xce;" horiz-adv-x="278" 
d="M60 0v725h155v-725h-155zM-22 773l110 145h103l104 -145h-89l-68 85l-70 -85h-90z" />
    <glyph glyph-name="Idieresis" unicode="&#xcf;" horiz-adv-x="278" 
d="M60 0v725h155v-725h-155zM172 777v118h102v-118h-102zM0 777v118h102v-118h-102z" />
    <glyph glyph-name="Eth" unicode="&#xd0;" horiz-adv-x="722" 
d="M65 0l-0.000976562 353.001h-65v87h65v281l239 -1c107.333 0 190.333 -21.667 249 -65c42.667 -31.333 73.834 -72.333 93.501 -123s29.5 -104.334 29.5 -161.001c0 -104.667 -24.167 -188 -72.5 -250s-109.5 -99.667 -183.5 -113c-28.667 -5.33301 -72 -8 -130 -8h-225z
M221.999 353.001l-0.000976562 -233.999c22.667 -1.33301 43 -2 61 -2c39.333 0 72 3.16699 98 9.5s49.333 19.833 70 40.5c43.333 43.333 65 111.333 65 204c0 55.333 -10.667 103.166 -32 143.499s-54.666 66.833 -99.999 79.5c-35.333 10 -89.333 13.333 -162 10v-164
h145v-87h-145z" />
    <glyph glyph-name="Ntilde" unicode="&#xd1;" horiz-adv-x="778" 
d="M72 0v723h224l271 -569v569h144v-723h-213l-280 600v-600h-146zM260 781l-52.001 0.000976562c5.33301 37.333 18.833 67.166 40.5 89.499s47.5 33.5 77.5 33.5c18.667 0 35.334 -3.66699 50.001 -11l57 -22c12 -4 23.333 -6 34 -6c25.333 0 41 15.333 47 46h51
c-4.66699 -41.333 -18 -72.333 -40 -93c-19.333 -19.333 -43.333 -29 -72 -29c-14.667 0 -32 3.66699 -52 11l-43 16c-20 6.66699 -35 10 -45 10c-25.333 0 -43 -15 -53 -45z" />
    <glyph glyph-name="Ograve" unicode="&#xd2;" horiz-adv-x="778" 
d="M42 351c0 50.667 6.16602 98 18.499 142s31.333 84.833 57 122.5s61.667 67.5 108 89.5s100.833 33 163.5 33c111.333 0 196 -32.667 254 -98c61.333 -70 92 -160.667 92 -272c0 -54 -8 -106.667 -24 -158s-38.333 -93 -67 -125c-61.333 -68.667 -147 -103 -257 -103
c-107.333 0 -192.666 33 -255.999 99c-59.333 63.333 -89 153.333 -89 270zM203.999 356c0 -88 17.999 -155.333 53.999 -202c28.667 -38.667 72.334 -58 131.001 -58c61.333 0 106.333 22.333 135 67c32.667 48.667 49 117.667 49 207c0 50.667 -6 93.667 -18 129
c-28.667 85.333 -83.667 128 -165 128c-56.667 0 -101 -20.333 -133 -61c-35.333 -43.333 -53 -113.333 -53 -210zM377.998 918l84 -145h-85l-139 145h140z" />
    <glyph glyph-name="Oacute" unicode="&#xd3;" horiz-adv-x="778" 
d="M42 351c0 50.667 6.16602 98 18.499 142s31.333 84.833 57 122.5s61.667 67.5 108 89.5s100.833 33 163.5 33c111.333 0 196 -32.667 254 -98c61.333 -70 92 -160.667 92 -272c0 -54 -8 -106.667 -24 -158s-38.333 -93 -67 -125c-61.333 -68.667 -147 -103 -257 -103
c-107.333 0 -192.666 33 -255.999 99c-59.333 63.333 -89 153.333 -89 270zM203.999 356c0 -88 17.999 -155.333 53.999 -202c28.667 -38.667 72.334 -58 131.001 -58c61.333 0 106.333 22.333 135 67c32.667 48.667 49 117.667 49 207c0 50.667 -6 93.667 -18 129
c-28.667 85.333 -83.667 128 -165 128c-56.667 0 -101 -20.333 -133 -61c-35.333 -43.333 -53 -113.333 -53 -210zM538.998 918l-137 -145h-80l83 145h134z" />
    <glyph glyph-name="Ocircumflex" unicode="&#xd4;" horiz-adv-x="778" 
d="M42 351c0 50.667 6.16602 98 18.499 142s31.333 84.833 57 122.5s61.667 67.5 108 89.5s100.833 33 163.5 33c111.333 0 196 -32.667 254 -98c61.333 -70 92 -160.667 92 -272c0 -54 -8 -106.667 -24 -158s-38.333 -93 -67 -125c-61.333 -68.667 -147 -103 -257 -103
c-107.333 0 -192.666 33 -255.999 99c-59.333 63.333 -89 153.333 -89 270zM203.999 356c0 -88 17.999 -155.333 53.999 -202c28.667 -38.667 72.334 -58 131.001 -58c61.333 0 106.333 22.333 135 67c32.667 48.667 49 117.667 49 207c0 50.667 -6 93.667 -18 129
c-28.667 85.333 -83.667 128 -165 128c-56.667 0 -101 -20.333 -133 -61c-35.333 -43.333 -53 -113.333 -53 -210zM227.998 773l110 145h103l104 -145h-89l-68 85l-70 -85h-90z" />
    <glyph glyph-name="Otilde" unicode="&#xd5;" horiz-adv-x="778" 
d="M42 351c0 50.667 6.16602 98 18.499 142s31.333 84.833 57 122.5s61.667 67.5 108 89.5s100.833 33 163.5 33c111.333 0 196 -32.667 254 -98c61.333 -70 92 -160.667 92 -272c0 -54 -8 -106.667 -24 -158s-38.333 -93 -67 -125c-61.333 -68.667 -147 -103 -257 -103
c-107.333 0 -192.666 33 -255.999 99c-59.333 63.333 -89 153.333 -89 270zM203.999 356c0 -88 17.999 -155.333 53.999 -202c28.667 -38.667 72.334 -58 131.001 -58c61.333 0 106.333 22.333 135 67c32.667 48.667 49 117.667 49 207c0 50.667 -6 93.667 -18 129
c-28.667 85.333 -83.667 128 -165 128c-56.667 0 -101 -20.333 -133 -61c-35.333 -43.333 -53 -113.333 -53 -210zM259.998 781l-52.001 0.000976562c5.33301 37.333 18.833 67.166 40.5 89.499s47.5 33.5 77.5 33.5c18.667 0 35.334 -3.66699 50.001 -11l57 -22
c12 -4 23.333 -6 34 -6c25.333 0 41 15.333 47 46h51c-4.66699 -41.333 -18 -72.333 -40 -93c-19.333 -19.333 -43.333 -29 -72 -29c-14.667 0 -32 3.66699 -52 11l-43 16c-20 6.66699 -35 10 -45 10c-25.333 0 -43 -15 -53 -45z" />
    <glyph glyph-name="Odieresis" unicode="&#xd6;" horiz-adv-x="778" 
d="M42 351c0 50.667 6.16602 98 18.499 142s31.333 84.833 57 122.5s61.667 67.5 108 89.5s100.833 33 163.5 33c111.333 0 196 -32.667 254 -98c61.333 -70 92 -160.667 92 -272c0 -54 -8 -106.667 -24 -158s-38.333 -93 -67 -125c-61.333 -68.667 -147 -103 -257 -103
c-107.333 0 -192.666 33 -255.999 99c-59.333 63.333 -89 153.333 -89 270zM203.999 356c0 -88 17.999 -155.333 53.999 -202c28.667 -38.667 72.334 -58 131.001 -58c61.333 0 106.333 22.333 135 67c32.667 48.667 49 117.667 49 207c0 50.667 -6 93.667 -18 129
c-28.667 85.333 -83.667 128 -165 128c-56.667 0 -101 -20.333 -133 -61c-35.333 -43.333 -53 -113.333 -53 -210zM421.998 777v118h102v-118h-102zM249.998 777v118h102v-118h-102z" />
    <glyph glyph-name="multiply" unicode="&#xd7;" horiz-adv-x="584" 
d="M33 99l167 167l-167 168l92 92l167 -168l167 168l92 -92l-167 -168l167 -167l-92 -92l-167 168l-167 -168z" />
    <glyph glyph-name="Oslash" unicode="&#xd8;" horiz-adv-x="778" 
d="M616 664l93.998 100.998l47 -47l-95 -104c47.333 -63.333 71 -146.333 71 -249c0 -124.667 -32 -219.667 -96 -285s-147 -98 -249 -98c-97.333 0 -176.666 26.333 -237.999 79l-100 -108l-48 47l103 111c-43.333 61.333 -65 141.333 -65 240
c0 34.667 2.83301 68.334 8.5 101.001s16.334 66.834 32.001 102.501s35.834 66.667 60.501 93s58.167 48 100.5 65s90.833 25.5 145.5 25.5c95.333 0 171.666 -24.667 228.999 -74zM217.998 234.998l305 328.999c-32.667 44 -78 66 -136 66
c-32 0 -61.833 -8.16699 -89.5 -24.5s-49.167 -40.166 -64.5 -71.499c-20 -42.667 -30 -102 -30 -178c0 -48.667 5 -89 15 -121zM554.998 498.997l-307.001 -333c30.667 -47.333 77.334 -71 140.001 -71c122 0 183 92.667 183 278c0 48.667 -5.33301 90.667 -16 126z" />
    <glyph glyph-name="Ugrave" unicode="&#xd9;" horiz-adv-x="778" 
d="M72 721l154.998 -0.00195312v-440c0 -20 0.5 -36.5 1.5 -49.5s4.5 -28.5 10.5 -46.5s14.167 -32.333 24.5 -43s25.833 -19.834 46.5 -27.501s45.334 -11.5 74.001 -11.5c66 0 112.667 21 140 63c15.333 22.667 23 63.667 23 123v432h151v-451
c0 -51.333 -9.5 -96.166 -28.5 -134.499s-44.333 -67.833 -76 -88.5s-65.167 -36 -100.5 -46s-72.666 -15 -111.999 -15c-129.333 0 -220 41.667 -272 125c-16 24.667 -26.167 50.334 -30.5 77.001s-6.5 60.334 -6.5 101.001v432zM377.998 917.998l84 -145h-85l-139 145h140
z" />
    <glyph glyph-name="Uacute" unicode="&#xda;" horiz-adv-x="778" 
d="M72 721l154.998 -0.00195312v-440c0 -20 0.5 -36.5 1.5 -49.5s4.5 -28.5 10.5 -46.5s14.167 -32.333 24.5 -43s25.833 -19.834 46.5 -27.501s45.334 -11.5 74.001 -11.5c66 0 112.667 21 140 63c15.333 22.667 23 63.667 23 123v432h151v-451
c0 -51.333 -9.5 -96.166 -28.5 -134.499s-44.333 -67.833 -76 -88.5s-65.167 -36 -100.5 -46s-72.666 -15 -111.999 -15c-129.333 0 -220 41.667 -272 125c-16 24.667 -26.167 50.334 -30.5 77.001s-6.5 60.334 -6.5 101.001v432zM538.998 917.998l-137 -145h-80l83 145h134
z" />
    <glyph glyph-name="Ucircumflex" unicode="&#xdb;" horiz-adv-x="778" 
d="M72 721l154.998 -0.00195312v-440c0 -20 0.5 -36.5 1.5 -49.5s4.5 -28.5 10.5 -46.5s14.167 -32.333 24.5 -43s25.833 -19.834 46.5 -27.501s45.334 -11.5 74.001 -11.5c66 0 112.667 21 140 63c15.333 22.667 23 63.667 23 123v432h151v-451
c0 -51.333 -9.5 -96.166 -28.5 -134.499s-44.333 -67.833 -76 -88.5s-65.167 -36 -100.5 -46s-72.666 -15 -111.999 -15c-129.333 0 -220 41.667 -272 125c-16 24.667 -26.167 50.334 -30.5 77.001s-6.5 60.334 -6.5 101.001v432zM227.998 772.998l110 145h103l104 -145h-89
l-68 85l-70 -85h-90z" />
    <glyph glyph-name="Udieresis" unicode="&#xdc;" horiz-adv-x="778" 
d="M72 721l154.998 -0.00195312v-440c0 -20 0.5 -36.5 1.5 -49.5s4.5 -28.5 10.5 -46.5s14.167 -32.333 24.5 -43s25.833 -19.834 46.5 -27.501s45.334 -11.5 74.001 -11.5c66 0 112.667 21 140 63c15.333 22.667 23 63.667 23 123v432h151v-451
c0 -51.333 -9.5 -96.166 -28.5 -134.499s-44.333 -67.833 -76 -88.5s-65.167 -36 -100.5 -46s-72.666 -15 -111.999 -15c-129.333 0 -220 41.667 -272 125c-16 24.667 -26.167 50.334 -30.5 77.001s-6.5 60.334 -6.5 101.001v432zM421.998 776.998v118h102v-118h-102z
M249.998 776.998v118h102v-118h-102z" />
    <glyph glyph-name="Yacute" unicode="&#xdd;" horiz-adv-x="667" 
d="M16 720h181l149 -329l152 329h159l-244 -457v-263h-153v265zM484 918l-137 -145h-80l83 145h134z" />
    <glyph glyph-name="Thorn" unicode="&#xde;" horiz-adv-x="611" 
d="M65 0l-0.000976562 721h153v-110h70c57.333 0 104.833 -4.16699 142.5 -12.5s69.834 -26.166 96.501 -53.499c37.333 -37.333 56 -87.666 56 -150.999c0 -38.667 -7.83301 -74.834 -23.5 -108.501s-38.5 -60.834 -68.5 -81.501c-32.667 -22.667 -89.667 -34 -171 -34h-98
v-170h-157zM217.999 493l0.00195312 -207.998h62c46 0 77.333 5 94 15c32.667 18.667 49 50.667 49 96c0 18.667 -3.33301 34.5 -10 47.5s-14 22.667 -22 29s-18.833 11.166 -32.5 14.499s-24.334 5.16602 -32.001 5.49902s-17.834 0.5 -30.501 0.5h-78z" />
    <glyph glyph-name="germandbls" unicode="&#xdf;" horiz-adv-x="667" 
d="M59 0l0.00195312 539.002c0 26.667 3.5 51 10.5 73s16 39.5 27 52.5s20.167 22.5 27.5 28.5s14.333 11 21 15c38.667 22.667 92 34 160 34c39.333 0 75.833 -4.83301 109.5 -14.5s62.5 -26.167 86.5 -49.5s36 -52 36 -86c0 -24.667 -6.33301 -46.334 -19 -65.001
s-37 -39.667 -73 -63c-6.66699 -4.66699 -11.667 -8.33398 -15 -11.001s-6.83301 -7.16699 -10.5 -13.5s-5.5 -13.833 -5.5 -22.5c0 -16.667 15.667 -34 47 -52l78 -47c18 -10 32.5 -19.833 43.5 -29.5s21.667 -25.167 32 -46.5s15.5 -46.666 15.5 -75.999
c0 -121.333 -67 -182 -201 -182c-16 0 -30 0.666992 -42 2s-26.5 5 -43.5 11s-31.333 14.333 -43 25s-22.167 26.5 -31.5 47.5s-15 45.833 -17 74.5h131c0 -20 5.33301 -35.333 16 -46c8.66699 -10 20.667 -15 36 -15c14.667 0 27.667 6 39 18s17 29.667 17 53
c0 36.667 -19 66.334 -57 89.001l-78 47c-30.667 18 -52 34.167 -64 48.5s-18 34.166 -18 59.499c0 21.333 5.16699 41.666 15.5 60.999s30.166 41 59.499 65c8.66699 8 15.5 14.5 20.5 19.5s9.5 11.5 13.5 19.5s6 16.333 6 25c0 17.333 -6.66699 32 -20 44
s-32.333 18 -57 18c-38.667 0 -68.334 -14.333 -89.001 -43c-12.667 -18 -19 -45.333 -19 -82v-525h-145z" />
    <glyph glyph-name="agrave" unicode="&#xe0;" 
d="M502 0h-134c-3.33301 20.667 -5 43.667 -5 69c-37.333 -54 -87.666 -81 -150.999 -81c-56 0 -98 13.333 -126 40c-29.333 29.333 -44 66.333 -44 111c0 72 35.667 124.333 107 157c41.333 18.667 108 28 200 28c0 30.667 -2.33301 53 -7 67c-10 28 -32 42 -66 42
c-24.667 0 -43.334 -9.33301 -56.001 -28c-7.33301 -11.333 -11 -26.333 -11 -45h-145c2 53.333 21 93 57 119c38 27.333 89 41 153 41c82.667 0 142.667 -21.667 180 -65c23.333 -28 35 -69.333 35 -124l1 -203c0 -48 4 -90.667 12 -128zM349 238
c-48.667 4 -88.001 -1.33203 -118.001 -15.999s-45 -36.667 -45 -66c0 -18.667 6.33301 -35.334 19 -50.001s30.334 -22 53.001 -22c25.333 0 46.333 9.66699 63 29c12 14.667 19.667 31.167 23 49.5s5 43.5 5 75.5zM266.999 730.001l84 -145h-85l-139 145h140z" />
    <glyph glyph-name="aacute" unicode="&#xe1;" 
d="M502 0h-134c-3.33301 20.667 -5 43.667 -5 69c-37.333 -54 -87.666 -81 -150.999 -81c-56 0 -98 13.333 -126 40c-29.333 29.333 -44 66.333 -44 111c0 72 35.667 124.333 107 157c41.333 18.667 108 28 200 28c0 30.667 -2.33301 53 -7 67c-10 28 -32 42 -66 42
c-24.667 0 -43.334 -9.33301 -56.001 -28c-7.33301 -11.333 -11 -26.333 -11 -45h-145c2 53.333 21 93 57 119c38 27.333 89 41 153 41c82.667 0 142.667 -21.667 180 -65c23.333 -28 35 -69.333 35 -124l1 -203c0 -48 4 -90.667 12 -128zM349 238
c-48.667 4 -88.001 -1.33203 -118.001 -15.999s-45 -36.667 -45 -66c0 -18.667 6.33301 -35.334 19 -50.001s30.334 -22 53.001 -22c25.333 0 46.333 9.66699 63 29c12 14.667 19.667 31.167 23 49.5s5 43.5 5 75.5zM427.999 730.001l-137 -145h-80l83 145h134z" />
    <glyph glyph-name="acircumflex" unicode="&#xe2;" 
d="M502 0h-134c-3.33301 20.667 -5 43.667 -5 69c-37.333 -54 -87.666 -81 -150.999 -81c-56 0 -98 13.333 -126 40c-29.333 29.333 -44 66.333 -44 111c0 72 35.667 124.333 107 157c41.333 18.667 108 28 200 28c0 30.667 -2.33301 53 -7 67c-10 28 -32 42 -66 42
c-24.667 0 -43.334 -9.33301 -56.001 -28c-7.33301 -11.333 -11 -26.333 -11 -45h-145c2 53.333 21 93 57 119c38 27.333 89 41 153 41c82.667 0 142.667 -21.667 180 -65c23.333 -28 35 -69.333 35 -124l1 -203c0 -48 4 -90.667 12 -128zM349 238
c-48.667 4 -88.001 -1.33203 -118.001 -15.999s-45 -36.667 -45 -66c0 -18.667 6.33301 -35.334 19 -50.001s30.334 -22 53.001 -22c25.333 0 46.333 9.66699 63 29c12 14.667 19.667 31.167 23 49.5s5 43.5 5 75.5zM116.999 585.001l110 145h103l104 -145h-89l-68 85
l-70 -85h-90z" />
    <glyph glyph-name="atilde" unicode="&#xe3;" 
d="M502 0h-134c-3.33301 20.667 -5 43.667 -5 69c-37.333 -54 -87.666 -81 -150.999 -81c-56 0 -98 13.333 -126 40c-29.333 29.333 -44 66.333 -44 111c0 72 35.667 124.333 107 157c41.333 18.667 108 28 200 28c0 30.667 -2.33301 53 -7 67c-10 28 -32 42 -66 42
c-24.667 0 -43.334 -9.33301 -56.001 -28c-7.33301 -11.333 -11 -26.333 -11 -45h-145c2 53.333 21 93 57 119c38 27.333 89 41 153 41c82.667 0 142.667 -21.667 180 -65c23.333 -28 35 -69.333 35 -124l1 -203c0 -48 4 -90.667 12 -128zM349 238
c-48.667 4 -88.001 -1.33203 -118.001 -15.999s-45 -36.667 -45 -66c0 -18.667 6.33301 -35.334 19 -50.001s30.334 -22 53.001 -22c25.333 0 46.333 9.66699 63 29c12 14.667 19.667 31.167 23 49.5s5 43.5 5 75.5zM148.999 593.001l-52.001 0.000976562
c5.33301 37.333 18.833 67.166 40.5 89.499s47.5 33.5 77.5 33.5c18.667 0 35.334 -3.66699 50.001 -11l57 -22c12 -4 23.333 -6 34 -6c25.333 0 41 15.333 47 46h51c-4.66699 -41.333 -18 -72.333 -40 -93c-19.333 -19.333 -43.333 -29 -72 -29
c-14.667 0 -32 3.66699 -52 11l-43 16c-20 6.66699 -35 10 -45 10c-25.333 0 -43 -15 -53 -45z" />
    <glyph glyph-name="adieresis" unicode="&#xe4;" 
d="M502 0h-134c-3.33301 20.667 -5 43.667 -5 69c-37.333 -54 -87.666 -81 -150.999 -81c-56 0 -98 13.333 -126 40c-29.333 29.333 -44 66.333 -44 111c0 72 35.667 124.333 107 157c41.333 18.667 108 28 200 28c0 30.667 -2.33301 53 -7 67c-10 28 -32 42 -66 42
c-24.667 0 -43.334 -9.33301 -56.001 -28c-7.33301 -11.333 -11 -26.333 -11 -45h-145c2 53.333 21 93 57 119c38 27.333 89 41 153 41c82.667 0 142.667 -21.667 180 -65c23.333 -28 35 -69.333 35 -124l1 -203c0 -48 4 -90.667 12 -128zM349 238
c-48.667 4 -88.001 -1.33203 -118.001 -15.999s-45 -36.667 -45 -66c0 -18.667 6.33301 -35.334 19 -50.001s30.334 -22 53.001 -22c25.333 0 46.333 9.66699 63 29c12 14.667 19.667 31.167 23 49.5s5 43.5 5 75.5zM310.999 599.001v118h102v-118h-102zM138.999 599.001
v118h102v-118h-102z" />
    <glyph glyph-name="aring" unicode="&#xe5;" 
d="M502 0h-134c-3.33301 20.667 -5 43.667 -5 69c-37.333 -54 -87.666 -81 -150.999 -81c-56 0 -98 13.333 -126 40c-29.333 29.333 -44 66.333 -44 111c0 72 35.667 124.333 107 157c41.333 18.667 108 28 200 28c0 30.667 -2.33301 53 -7 67c-10 28 -32 42 -66 42
c-24.667 0 -43.334 -9.33301 -56.001 -28c-7.33301 -11.333 -11 -26.333 -11 -45h-145c2 53.333 21 93 57 119c38 27.333 89 41 153 41c82.667 0 142.667 -21.667 180 -65c23.333 -28 35 -69.333 35 -124l1 -203c0 -48 4 -90.667 12 -128zM349 238
c-48.667 4 -88.001 -1.33203 -118.001 -15.999s-45 -36.667 -45 -66c0 -18.667 6.33301 -35.334 19 -50.001s30.334 -22 53.001 -22c25.333 0 46.333 9.66699 63 29c12 14.667 19.667 31.167 23 49.5s5 43.5 5 75.5zM277.999 760.001c28.667 0 52.667 -10 72 -30
s29 -44 29 -72s-9.83301 -52 -29.5 -72s-43.5 -30 -71.5 -30s-51.833 10 -71.5 30s-29.5 44 -29.5 72s9.83301 52 29.5 72s43.5 30 71.5 30zM277.999 712.001c-14.667 0 -27.1689 -5.33301 -37.502 -16s-15.5 -23.334 -15.5 -38.001s5.16699 -27.167 15.5 -37.5
s22.833 -15.5 37.5 -15.5s27.334 5.16699 38.001 15.5s16 22.833 16 37.5s-5.16699 27.334 -15.5 38.001s-23.166 16 -38.499 16z" />
    <glyph glyph-name="ae" unicode="&#xe6;" horiz-adv-x="889" 
d="M699 156l138.998 0.000976562c-5.33301 -42 -19.666 -77 -42.999 -105c-36.667 -44 -92.667 -66 -168 -66c-88 0 -152.333 31 -193 93c-16 -18.667 -30.5 -33.834 -43.5 -45.501s-33.833 -23.167 -62.5 -34.5s-60.667 -17 -96 -17c-63.333 0 -111.5 14.5 -144.5 43.5
s-49.5 67.167 -49.5 114.5c0 68.667 29.333 117 88 145c20 10 46 17.5 78 22.5s57.667 7.83301 77 8.5s49 1.33398 89 2.00098c3.33301 78 -24.667 117 -84 117c-20.667 0 -38.5 -5.5 -53.5 -16.5s-23.167 -29.167 -24.5 -54.5h-143c8.66699 104.667 76.334 157 203.001 157
c76.667 0 136.667 -26.333 180 -79c44 52.667 103.333 79 178 79c83.333 0 145.666 -32.667 186.999 -98c25.333 -40.667 38 -104.334 38 -191.001h-338c0 -43.333 5.66699 -76.333 17 -99c16.667 -34.667 45.334 -52 86.001 -52c15.333 0 28.333 2.5 39 7.5
s19 12.333 25 22s10.167 17.5 12.5 23.5s4.5 13.667 6.5 23zM511.998 317.001h186c0 76.667 -29 115 -87 115c-60 0 -93 -38.333 -99 -115zM368.998 231.001c-9.33301 1.33301 -24.001 2 -44.001 2c-96 0 -144 -29 -144 -87c0 -21.333 7.83301 -38.333 23.5 -51
s33.834 -19 54.501 -19c16.667 0 33.5 4.33301 50.5 13s30.167 22 39.5 40c10 20 16.667 54 20 102z" />
    <glyph glyph-name="ccedilla" unicode="&#xe7;" horiz-adv-x="500" 
d="M334 183l145.999 0.00195312c-3.33301 -65.333 -25 -115 -65 -149c-34 -28.667 -77.667 -44.334 -131 -47.001l-36 -49c14.667 2.66699 26.667 4 36 4c29.333 0 50.5 -7.5 63.5 -22.5s19.5 -31.5 19.5 -49.5c0 -22.667 -7.66699 -41.167 -23 -55.5
s-31.833 -23.833 -49.5 -28.5s-35.5 -7 -53.5 -7c-32.667 0 -65 7.33301 -97 22l21 42c28.667 -12 52 -18 70 -18c16.667 0 30.167 3.5 40.5 10.5s15.5 16.167 15.5 27.5c0 8.66699 -3.66699 17 -11 25s-18.666 12 -33.999 12c-13.333 0 -26.666 -3 -39.999 -9l-21 21l53 76
c-60 6.66699 -106.333 28.667 -139 66c-42.667 48.667 -64 115 -64 199c0 43.333 6.16699 81.666 18.5 114.999s27.333 59 45 77s38 32.5 61 43.5s43.333 18.167 61 21.5s34.5 5 50.5 5c54 0 101.667 -15.667 143 -47s62.333 -78.666 63 -141.999h-145
c-6.66699 62 -28.334 93 -65.001 93c-52 0 -78 -53.667 -78 -161c0 -76.667 12.333 -128.334 37 -155.001c10.667 -11.333 24 -17 40 -17c5.33301 0 10.833 1 16.5 3s12.5 5.83301 20.5 11.5s14.833 15.667 20.5 30s9.16699 31.833 10.5 52.5z" />
    <glyph glyph-name="egrave" unicode="&#xe8;" 
d="M523 215l-338.999 -0.000976562c0 -90 34.333 -135 103 -135c47.333 0 76.666 23.333 87.999 70h135c-3.33301 -43.333 -19.333 -80 -48 -110c-37.333 -39.333 -96.333 -59 -177 -59c-78 0 -137.333 21 -178 63c-43.333 45.333 -65 111 -65 197
c0 110.667 35 190.334 105 239.001c42 28 89.333 42 142 42c41.333 0 80.333 -9.5 117 -28.5s65.667 -50.167 87 -93.5c23.333 -48 33.333 -109.667 30 -185zM189.001 307.999h183.001c0 10 -0.666992 19.5 -2 28.5s-4.5 20.833 -9.5 35.5s-14 26.5 -27 35.5
s-29.5 13.5 -49.5 13.5c-30.667 0 -53.834 -10.667 -69.501 -32s-24.167 -48.333 -25.5 -81zM267.002 729.999l84 -145h-85l-139 145h140z" />
    <glyph glyph-name="eacute" unicode="&#xe9;" 
d="M523 215l-338.999 -0.000976562c0 -90 34.333 -135 103 -135c47.333 0 76.666 23.333 87.999 70h135c-3.33301 -43.333 -19.333 -80 -48 -110c-37.333 -39.333 -96.333 -59 -177 -59c-78 0 -137.333 21 -178 63c-43.333 45.333 -65 111 -65 197
c0 110.667 35 190.334 105 239.001c42 28 89.333 42 142 42c41.333 0 80.333 -9.5 117 -28.5s65.667 -50.167 87 -93.5c23.333 -48 33.333 -109.667 30 -185zM189.001 307.999h183.001c0 10 -0.666992 19.5 -2 28.5s-4.5 20.833 -9.5 35.5s-14 26.5 -27 35.5
s-29.5 13.5 -49.5 13.5c-30.667 0 -53.834 -10.667 -69.501 -32s-24.167 -48.333 -25.5 -81zM428.002 729.999l-137 -145h-80l83 145h134z" />
    <glyph glyph-name="ecircumflex" unicode="&#xea;" 
d="M523 215l-338.999 -0.000976562c0 -90 34.333 -135 103 -135c47.333 0 76.666 23.333 87.999 70h135c-3.33301 -43.333 -19.333 -80 -48 -110c-37.333 -39.333 -96.333 -59 -177 -59c-78 0 -137.333 21 -178 63c-43.333 45.333 -65 111 -65 197
c0 110.667 35 190.334 105 239.001c42 28 89.333 42 142 42c41.333 0 80.333 -9.5 117 -28.5s65.667 -50.167 87 -93.5c23.333 -48 33.333 -109.667 30 -185zM189.001 307.999h183.001c0 10 -0.666992 19.5 -2 28.5s-4.5 20.833 -9.5 35.5s-14 26.5 -27 35.5
s-29.5 13.5 -49.5 13.5c-30.667 0 -53.834 -10.667 -69.501 -32s-24.167 -48.333 -25.5 -81zM117.002 584.999l110 145h103l104 -145h-89l-68 85l-70 -85h-90z" />
    <glyph glyph-name="edieresis" unicode="&#xeb;" 
d="M523 215l-338.999 -0.000976562c0 -90 34.333 -135 103 -135c47.333 0 76.666 23.333 87.999 70h135c-3.33301 -43.333 -19.333 -80 -48 -110c-37.333 -39.333 -96.333 -59 -177 -59c-78 0 -137.333 21 -178 63c-43.333 45.333 -65 111 -65 197
c0 110.667 35 190.334 105 239.001c42 28 89.333 42 142 42c41.333 0 80.333 -9.5 117 -28.5s65.667 -50.167 87 -93.5c23.333 -48 33.333 -109.667 30 -185zM189.001 307.999h183.001c0 10 -0.666992 19.5 -2 28.5s-4.5 20.833 -9.5 35.5s-14 26.5 -27 35.5
s-29.5 13.5 -49.5 13.5c-30.667 0 -53.834 -10.667 -69.501 -32s-24.167 -48.333 -25.5 -81zM311.002 598.999v118h102v-118h-102zM139.002 598.999v118h102v-118h-102z" />
    <glyph glyph-name="igrave" unicode="&#xec;" horiz-adv-x="278" 
d="M65 0v506h148v-506h-148zM128 730l84 -145h-85l-139 145h140z" />
    <glyph glyph-name="iacute" unicode="&#xed;" horiz-adv-x="278" 
d="M65 0v506h148v-506h-148zM289 730l-137 -145h-80l83 145h134z" />
    <glyph glyph-name="icircumflex" unicode="&#xee;" horiz-adv-x="278" 
d="M65 0v506h148v-506h-148zM-22 585l110 145h103l104 -145h-89l-68 85l-70 -85h-90z" />
    <glyph glyph-name="idieresis" unicode="&#xef;" horiz-adv-x="278" 
d="M65 0v506h148v-506h-148zM172 599v118h102v-118h-102zM0 599v118h102v-118h-102z" />
    <glyph glyph-name="eth" unicode="&#xf0;" horiz-adv-x="611" 
d="M124 564l86.001 58.9961c-33.333 16.667 -66 31.334 -98 44.001l79 90c48 -21.333 89.667 -42.333 125 -63l79 54l44 -34l-76 -51c18.667 -14 35.167 -27 49.5 -39s31.666 -30 51.999 -54s37.166 -48.833 50.499 -74.5s24.833 -57.667 34.5 -96s14.5 -78.833 14.5 -121.5
c0 -88.667 -21.167 -159.5 -63.5 -212.5s-107.833 -79.5 -196.5 -79.5c-71.333 0 -127.333 15.333 -168 46c-58.667 42.667 -88 110.667 -88 204c0 44.667 7.5 83.834 22.5 117.501s34.333 59.667 58 78s48.334 31.833 74.001 40.5s51.5 13 77.5 13
c49.333 0 93.333 -15.333 132 -46c-17.333 28.667 -37 54.834 -59 78.501s-53 48.834 -93 75.501l-92 -63zM309.001 80.9961c72 0 108 55 108 165c0 102.667 -36 154 -108 154c-20.667 0 -38.667 -5 -54 -15s-26.5 -21.167 -33.5 -33.5s-12.5 -27.5 -16.5 -45.5
s-6.16699 -31.5 -6.5 -40.5s-0.5 -18.833 -0.5 -29.5c0 -103.333 37 -155 111 -155z" />
    <glyph glyph-name="ntilde" unicode="&#xf1;" horiz-adv-x="611" 
d="M67 0v415c0 38 -1 68.667 -3 92h142l4 -76c36 58.667 90.667 88 164 88c44 0 78.5 -9.83301 103.5 -29.5s41.833 -41.5 50.5 -65.5c9.33301 -26 14 -76.333 14 -151v-273h-151v314c0 26 -2.66699 44.333 -8 55c-14 28.667 -38 43 -72 43s-59.667 -13 -77 -39
c-12 -17.333 -18 -43 -18 -77v-296h-149zM177 593l-52.001 0.000976562c5.33301 37.333 18.833 67.166 40.5 89.499s47.5 33.5 77.5 33.5c18.667 0 35.334 -3.66699 50.001 -11l57 -22c12 -4 23.333 -6 34 -6c25.333 0 41 15.333 47 46h51
c-4.66699 -41.333 -18 -72.333 -40 -93c-19.333 -19.333 -43.333 -29 -72 -29c-14.667 0 -32 3.66699 -52 11l-43 16c-20 6.66699 -35 10 -45 10c-25.333 0 -43 -15 -53 -45z" />
    <glyph glyph-name="ograve" unicode="&#xf2;" horiz-adv-x="611" 
d="M42 248c0 32.667 4.5 64.001 13.5 94.001s23 58.5 42 85.5s46.167 48.667 81.5 65s76.666 24.5 123.999 24.5c86.667 0 152 -25.167 196 -75.5s66 -113.5 66 -189.5c0 -76.667 -22.5 -140.834 -67.5 -192.501s-110.833 -77.5 -197.5 -77.5
c-75.333 0 -137.166 23 -185.499 69s-72.5 111.667 -72.5 197zM194 247.001c0 -108 37 -162 111 -162c35.333 0 62.333 13 81 39s28 70.667 28 134c0 106.667 -37 160 -111 160c-72.667 0 -109 -57 -109 -171zM295 730.001l84 -145h-85l-139 145h140z" />
    <glyph glyph-name="oacute" unicode="&#xf3;" horiz-adv-x="611" 
d="M42 248c0 32.667 4.5 64.001 13.5 94.001s23 58.5 42 85.5s46.167 48.667 81.5 65s76.666 24.5 123.999 24.5c86.667 0 152 -25.167 196 -75.5s66 -113.5 66 -189.5c0 -76.667 -22.5 -140.834 -67.5 -192.501s-110.833 -77.5 -197.5 -77.5
c-75.333 0 -137.166 23 -185.499 69s-72.5 111.667 -72.5 197zM194 247.001c0 -108 37 -162 111 -162c35.333 0 62.333 13 81 39s28 70.667 28 134c0 106.667 -37 160 -111 160c-72.667 0 -109 -57 -109 -171zM456 730.001l-137 -145h-80l83 145h134z" />
    <glyph glyph-name="ocircumflex" unicode="&#xf4;" horiz-adv-x="611" 
d="M42 248c0 32.667 4.5 64.001 13.5 94.001s23 58.5 42 85.5s46.167 48.667 81.5 65s76.666 24.5 123.999 24.5c86.667 0 152 -25.167 196 -75.5s66 -113.5 66 -189.5c0 -76.667 -22.5 -140.834 -67.5 -192.501s-110.833 -77.5 -197.5 -77.5
c-75.333 0 -137.166 23 -185.499 69s-72.5 111.667 -72.5 197zM194 247.001c0 -108 37 -162 111 -162c35.333 0 62.333 13 81 39s28 70.667 28 134c0 106.667 -37 160 -111 160c-72.667 0 -109 -57 -109 -171zM145 585.001l110 145h103l104 -145h-89l-68 85l-70 -85h-90z
" />
    <glyph glyph-name="otilde" unicode="&#xf5;" horiz-adv-x="611" 
d="M42 248c0 32.667 4.5 64.001 13.5 94.001s23 58.5 42 85.5s46.167 48.667 81.5 65s76.666 24.5 123.999 24.5c86.667 0 152 -25.167 196 -75.5s66 -113.5 66 -189.5c0 -76.667 -22.5 -140.834 -67.5 -192.501s-110.833 -77.5 -197.5 -77.5
c-75.333 0 -137.166 23 -185.499 69s-72.5 111.667 -72.5 197zM194 247.001c0 -108 37 -162 111 -162c35.333 0 62.333 13 81 39s28 70.667 28 134c0 106.667 -37 160 -111 160c-72.667 0 -109 -57 -109 -171zM177 593.001l-52.001 0.000976562
c5.33301 37.333 18.833 67.166 40.5 89.499s47.5 33.5 77.5 33.5c18.667 0 35.334 -3.66699 50.001 -11l57 -22c12 -4 23.333 -6 34 -6c25.333 0 41 15.333 47 46h51c-4.66699 -41.333 -18 -72.333 -40 -93c-19.333 -19.333 -43.333 -29 -72 -29
c-14.667 0 -32 3.66699 -52 11l-43 16c-20 6.66699 -35 10 -45 10c-25.333 0 -43 -15 -53 -45z" />
    <glyph glyph-name="odieresis" unicode="&#xf6;" horiz-adv-x="611" 
d="M42 248c0 32.667 4.5 64.001 13.5 94.001s23 58.5 42 85.5s46.167 48.667 81.5 65s76.666 24.5 123.999 24.5c86.667 0 152 -25.167 196 -75.5s66 -113.5 66 -189.5c0 -76.667 -22.5 -140.834 -67.5 -192.501s-110.833 -77.5 -197.5 -77.5
c-75.333 0 -137.166 23 -185.499 69s-72.5 111.667 -72.5 197zM194 247.001c0 -108 37 -162 111 -162c35.333 0 62.333 13 81 39s28 70.667 28 134c0 106.667 -37 160 -111 160c-72.667 0 -109 -57 -109 -171zM339 599.001v118h102v-118h-102zM167 599.001v118h102v-118
h-102z" />
    <glyph glyph-name="divide" unicode="&#xf7;" horiz-adv-x="584" 
d="M21 202v129h533v-129h-533zM213 4v147h149v-147h-149zM213 382v147h149v-147h-149z" />
    <glyph glyph-name="oslash" unicode="&#xf8;" horiz-adv-x="611" 
d="M540 547l41.001 -34.999l-75 -78c38 -48 57 -109 57 -183c0 -78 -22 -142 -66 -192s-108.667 -75 -194 -75c-34 0 -64.333 3.83301 -91 11.5s-44.834 14.667 -54.501 21s-20.5 14.833 -32.5 25.5l-75 -78l-41 34l80 86c-32 47.333 -48 101.666 -48 162.999
c0 82.667 23.333 148.167 70 196.5s110 72.5 190 72.5c66.667 0 121.667 -15 165 -45zM198.001 195.001l184 190c-20 22 -46.333 33 -79 33c-72.667 0 -109 -54.667 -109 -164c0 -22 1.33301 -41.667 4 -59zM406.001 330.001l-190.002 -195
c18.667 -33.333 47.334 -50 86.001 -50c24 0 43.833 4.83301 59.5 14.5s26.834 23.5 33.501 41.5s11.167 34.833 13.5 50.5s3.5 34.167 3.5 55.5c0 34 -2 61.667 -6 83z" />
    <glyph glyph-name="ugrave" unicode="&#xf9;" horiz-adv-x="611" 
d="M60 505l150.007 0.00195312v-301c0 -12.667 0.166992 -22.5 0.5 -29.5s1.83301 -16.333 4.5 -28s6.66699 -20.834 12 -27.501s13.166 -12.667 23.499 -18s23.166 -8 38.499 -8c18.667 0 34.167 3 46.5 9s21.666 12.833 27.999 20.5s11.166 19.667 14.499 36
s5.16602 30 5.49902 41s0.5 27.833 0.5 50.5v255h152v-333c0.666992 -31.333 1.16699 -57.5 1.5 -78.5s0.666016 -34.833 0.999023 -41.5s0.5 -11.667 0.5 -15c0.666992 -12 2 -24.333 4 -37h-144l-5 67c-36.667 -53.333 -86.334 -80 -149.001 -80
c-32.667 0 -62.5 6.5 -89.5 19.5s-47.833 29.167 -62.5 48.5c-22 27.333 -33 72.666 -33 135.999v314zM295.007 730.002l84 -145h-85l-139 145h140z" />
    <glyph glyph-name="uacute" unicode="&#xfa;" horiz-adv-x="611" 
d="M60 505l150.007 0.00195312v-301c0 -12.667 0.166992 -22.5 0.5 -29.5s1.83301 -16.333 4.5 -28s6.66699 -20.834 12 -27.501s13.166 -12.667 23.499 -18s23.166 -8 38.499 -8c18.667 0 34.167 3 46.5 9s21.666 12.833 27.999 20.5s11.166 19.667 14.499 36
s5.16602 30 5.49902 41s0.5 27.833 0.5 50.5v255h152v-333c0.666992 -31.333 1.16699 -57.5 1.5 -78.5s0.666016 -34.833 0.999023 -41.5s0.5 -11.667 0.5 -15c0.666992 -12 2 -24.333 4 -37h-144l-5 67c-36.667 -53.333 -86.334 -80 -149.001 -80
c-32.667 0 -62.5 6.5 -89.5 19.5s-47.833 29.167 -62.5 48.5c-22 27.333 -33 72.666 -33 135.999v314zM456.007 730.002l-137 -145h-80l83 145h134z" />
    <glyph glyph-name="ucircumflex" unicode="&#xfb;" horiz-adv-x="611" 
d="M60 505l150.007 0.00195312v-301c0 -12.667 0.166992 -22.5 0.5 -29.5s1.83301 -16.333 4.5 -28s6.66699 -20.834 12 -27.501s13.166 -12.667 23.499 -18s23.166 -8 38.499 -8c18.667 0 34.167 3 46.5 9s21.666 12.833 27.999 20.5s11.166 19.667 14.499 36
s5.16602 30 5.49902 41s0.5 27.833 0.5 50.5v255h152v-333c0.666992 -31.333 1.16699 -57.5 1.5 -78.5s0.666016 -34.833 0.999023 -41.5s0.5 -11.667 0.5 -15c0.666992 -12 2 -24.333 4 -37h-144l-5 67c-36.667 -53.333 -86.334 -80 -149.001 -80
c-32.667 0 -62.5 6.5 -89.5 19.5s-47.833 29.167 -62.5 48.5c-22 27.333 -33 72.666 -33 135.999v314zM145.007 585.002l110 145h103l104 -145h-89l-68 85l-70 -85h-90z" />
    <glyph glyph-name="udieresis" unicode="&#xfc;" horiz-adv-x="611" 
d="M60 505l150.007 0.00195312v-301c0 -12.667 0.166992 -22.5 0.5 -29.5s1.83301 -16.333 4.5 -28s6.66699 -20.834 12 -27.501s13.166 -12.667 23.499 -18s23.166 -8 38.499 -8c18.667 0 34.167 3 46.5 9s21.666 12.833 27.999 20.5s11.166 19.667 14.499 36
s5.16602 30 5.49902 41s0.5 27.833 0.5 50.5v255h152v-333c0.666992 -31.333 1.16699 -57.5 1.5 -78.5s0.666016 -34.833 0.999023 -41.5s0.5 -11.667 0.5 -15c0.666992 -12 2 -24.333 4 -37h-144l-5 67c-36.667 -53.333 -86.334 -80 -149.001 -80
c-32.667 0 -62.5 6.5 -89.5 19.5s-47.833 29.167 -62.5 48.5c-22 27.333 -33 72.666 -33 135.999v314zM339.007 599.002v118h102v-118h-102zM167.007 599.002v118h102v-118h-102z" />
    <glyph glyph-name="yacute" unicode="&#xfd;" 
d="M14 505h160l111 -350l113 350h147l-191 -496l-61 -201h-149l64 190zM428 730l-137 -145h-80l83 145h134z" />
    <glyph glyph-name="thorn" unicode="&#xfe;" horiz-adv-x="611" 
d="M42 723h149.999v-290c30.667 54.667 81.334 82 152.001 82c66 0 117.5 -23 154.5 -69s55.5 -107.333 55.5 -184c0 -76 -19.5 -139.833 -58.5 -191.5s-92.5 -77.5 -160.5 -77.5c-63.333 0 -111 21.667 -143 65v-252h-150v917zM295.999 90c22 0 40.666 6 55.999 18
s26.333 27.5 33 46.5s11.334 36.667 14.001 53s4 32.833 4 49.5c0 14.667 -1 29.334 -3 44.001s-6.16699 32 -12.5 52s-17 36.167 -32 48.5s-33.5 18.5 -55.5 18.5c-34.667 0 -61.667 -13.667 -81 -41c-22 -30.667 -33 -74.334 -33 -131.001
c0 -105.333 36.667 -158 110 -158z" />
    <glyph glyph-name="ydieresis" unicode="&#xff;" 
d="M14 505h160l111 -350l113 350h147l-191 -496l-61 -201h-149l64 190zM311 599v118h102v-118h-102zM139 599v118h102v-118h-102z" />
    <glyph glyph-name="dotlessi" unicode="&#x131;" horiz-adv-x="278" 
d="M65 0v506h148v-506h-148z" />
    <glyph glyph-name="Lslash" unicode="&#x141;" 
d="M69 0v289l-66 -38v101l67 40l-1 330h158v-241l175 102v-104l-175 -101v-255h310v-123h-468z" />
    <glyph glyph-name="lslash" unicode="&#x142;" horiz-adv-x="278" 
d="M65 0v293l-53 -32v103l53 33v326h148v-236l53 33v-105l-53 -32v-383h-148z" />
    <glyph glyph-name="OE" unicode="&#x152;" horiz-adv-x="1000" 
d="M951 722l0.000976562 -115.999h-295v-180h286v-116h-287v-190h308v-120h-491c-44 0 -77.5 0.5 -100.5 1.5s-51.667 4.16699 -86 9.5s-64.333 14.666 -90 27.999s-49.5 31 -71.5 53c-61.333 60.667 -92 147.667 -92 261c0 84.667 18.667 159.167 56 223.5
s90.333 105.833 159 124.5c36 10 67.167 16 93.5 18s70.166 3 131.499 3h479zM500.001 111.001l-0.000976562 502.999c-58.667 0 -101.167 -1.5 -127.5 -4.5s-51.166 -10.167 -74.499 -21.5c-70.667 -33.333 -106 -113 -106 -239c0 -46.667 6 -86.167 18 -118.5
s28.167 -56.166 48.5 -71.499s43.833 -27.333 70.5 -36s54.5 -12.667 83.5 -12s58.167 0.666992 87.5 0z" />
    <glyph glyph-name="oe" unicode="&#x153;" horiz-adv-x="944" 
d="M760 156l138.999 -0.000976562c-8 -56 -31.333 -99 -70 -129c-38 -29.333 -87.333 -44 -148 -44c-27.333 0 -51.333 2.5 -72 7.5s-38.5 12.833 -53.5 23.5s-26.5 20 -34.5 28s-17.667 19 -29 33c-28.667 -34.667 -58.5 -58.834 -89.5 -72.501s-67.167 -20.5 -108.5 -20.5
c-46 0 -86 7.83301 -120 23.5s-60.167 36.834 -78.5 63.501s-31.833 55 -40.5 85s-13 62 -13 96c0 50.667 8.5 94.5 25.5 131.5s39.167 64.833 66.5 83.5s54.666 32 81.999 40s54.666 12 81.999 12c28.667 0 54.834 -3.33301 78.501 -10s43.334 -16 59.001 -28
s27 -21.5 34 -28.5s14.5 -15.833 22.5 -26.5c40 63.333 101.333 95 184 95c88.667 0 154 -34 196 -102c23.333 -38.667 35 -104.667 35 -198h-335c0 -24 2.33301 -45.667 7 -65s15 -37.166 31 -53.499s37.333 -24.5 64 -24.5c46.667 0 75.334 26.667 86.001 80z
M571.999 310.999h188c0 10.667 -0.166992 19.667 -0.5 27s-2.16602 17 -5.49902 29s-7.83301 21.833 -13.5 29.5s-14.334 14.5 -26.001 20.5s-25.5 9 -41.5 9c-28 0 -50.833 -9.66699 -68.5 -29s-28.5 -48 -32.5 -86zM304.999 79.999c26 0 47.333 5.66797 64 17.001
s28.5 27.166 35.5 47.499s11.667 39 14 56s3.5 36.833 3.5 59.5c0 107.333 -38.667 161 -116 161c-76 0 -114 -57 -114 -171c0 -113.333 37.667 -170 113 -170z" />
    <glyph glyph-name="Scaron" unicode="&#x160;" horiz-adv-x="667" 
d="M35 231l158 -0.000976562c0 -11.333 0.166992 -20.666 0.5 -27.999s2.83301 -18.666 7.5 -33.999s11.167 -27.666 19.5 -36.999s21.333 -18 39 -26s39.167 -12 64.5 -12c42 0 75.333 9.16699 100 27.5s37 42.833 37 73.5c0 29.333 -9.5 49.666 -28.5 60.999
s-55.167 23.333 -108.5 36c-92.667 23.333 -160.167 50.833 -202.5 82.5s-63.5 77.167 -63.5 136.5c0 64.667 24 118.167 72 160.5s119.333 63.5 214 63.5c100 0 172.667 -28.333 218 -85c27.333 -34.667 41 -79.334 41 -134.001h-149c-6 73.333 -45 110 -117 110
c-36 0 -64.833 -9 -86.5 -27s-32.5 -41.667 -32.5 -71c0 -30.667 10.833 -52 32.5 -64s63.167 -25.667 124.5 -41c31.333 -7.33301 56.333 -13.833 75 -19.5s40.334 -14 65.001 -25s43.834 -23 57.501 -36s25.5 -30.167 35.5 -51.5s15 -45.666 15 -72.999
c0 -68 -27.167 -124.167 -81.5 -168.5s-129.833 -66.5 -226.5 -66.5c-38 0 -72.167 3.5 -102.5 10.5s-55 15.5 -74 25.5s-35.5 23.333 -49.5 40s-24.333 31.5 -31 44.5s-11.834 29.167 -15.501 48.5s-5.83398 33.666 -6.50098 42.999s-1 21.333 -1 36zM406 917.999h93
l-106 -145h-117l-104 145h94l70 -91z" />
    <glyph glyph-name="scaron" unicode="&#x161;" horiz-adv-x="500" 
d="M29 146l138.999 -0.00292969c1.33301 -18.667 8.66602 -34.834 21.999 -48.501s34 -20.5 62 -20.5c24.667 0 43.834 5.83301 57.501 17.5s20.5 25.834 20.5 42.501c0 12.667 -4.83301 23.5 -14.5 32.5s-28.167 17.167 -55.5 24.5l-92 25
c-16 4.66699 -29 9.16699 -39 13.5s-23 11.5 -39 21.5s-28.333 24 -37 42s-13 39 -13 63c0 48.667 20.333 87.167 61 115.5s94 42.5 160 42.5c54.667 0 99.834 -12.667 135.501 -38s54.5 -62.333 56.5 -111h-135c-2.66699 40 -26.667 60 -72 60
c-20.667 0 -37.5 -4.5 -50.5 -13.5s-19.5 -21.167 -19.5 -36.5s5 -26.166 15 -32.499s28 -13.166 54 -20.499l91 -25c90 -24.667 135 -71.667 135 -141c0 -47.333 -20.167 -88.166 -60.5 -122.499s-97.5 -51.5 -171.5 -51.5c-76 0 -133.667 20.667 -173 62
c-22.667 24 -35 57 -37 99zM321.999 729.997h93l-106 -145h-117l-104 145h94l70 -91z" />
    <glyph glyph-name="Ydieresis" unicode="&#x178;" horiz-adv-x="667" 
d="M16 720h181l149 -329l152 329h159l-244 -457v-263h-153v265zM367 777v118h102v-118h-102zM195 777v118h102v-118h-102z" />
    <glyph glyph-name="Zcaron" unicode="&#x17d;" horiz-adv-x="611" 
d="M27 0v132l378 473l-355 -3v118h523v-137l-377 -470l385 6v-119h-554zM378 918h93l-106 -145h-117l-104 145h94l70 -91z" />
    <glyph glyph-name="zcaron" unicode="&#x17e;" horiz-adv-x="500" 
d="M32 0v130l256 276h-249v99h414v-127l-256 -276h266v-102h-431zM322 730h93l-106 -145h-117l-104 145h94l70 -91z" />
    <glyph glyph-name="florin" unicode="&#x192;" 
d="M30 -155l20.999 112.998c8 -1.33301 14.333 -2 19 -2c18 0 30.333 3.83301 37 11.5s11.334 18.5 14.001 32.5l69 350h-65l19 101h66l11 57c7.33301 34.667 14.166 61.834 20.499 81.501s15.666 39 27.999 58s28.5 32.5 48.5 40.5s45 12 75 12
c23.333 0 50.666 -2.33301 81.999 -7l-22 -110c-17.333 2.66699 -31.666 2.83398 -42.999 0.500977s-20 -8 -26 -17s-10.167 -17.333 -12.5 -25s-5.16602 -19.834 -8.49902 -36.501l-11 -54h72l-15 -101h-76l-75 -375c-3.33301 -17.333 -6.33301 -30.666 -9 -39.999
s-7.66699 -20.333 -15 -33s-16.666 -22.667 -27.999 -30c-32 -21.333 -70.667 -32 -116 -32c-20 0 -40 1.66699 -60 5z" />
    <glyph glyph-name="circumflex" unicode="&#x2c6;" horiz-adv-x="278" 
d="M-22 585l110 145h103l104 -145h-89l-68 85l-70 -85h-90z" />
    <glyph glyph-name="caron" unicode="&#x2c7;" horiz-adv-x="278" 
d="M211 730h93l-106 -145h-117l-104 145h94l70 -91z" />
    <glyph glyph-name="uni02C9" unicode="&#x2c9;" horiz-adv-x="278" 
d="M306 624h-342v68h342v-68z" />
    <glyph glyph-name="breve" unicode="&#x2d8;" horiz-adv-x="278" 
d="M-14 730l60.998 -0.000976562c4.66699 -29.333 15.5 -50 32.5 -62s35.833 -18 56.5 -18c16.667 0 31 2.66699 43 8s21.333 12.833 28 22.5s11.334 17.834 14.001 24.501s5.33398 15 8.00098 25h61c-2.66699 -42 -17.5 -76.667 -44.5 -104s-63.833 -41 -110.5 -41
c-54 0 -94.667 18.333 -122 55c-16 20.667 -25 50.667 -27 90z" />
    <glyph glyph-name="dotaccent" unicode="&#x2d9;" horiz-adv-x="278" 
d="M88 599v118h102v-118h-102z" />
    <glyph glyph-name="ring" unicode="&#x2da;" horiz-adv-x="278" 
d="M139 760c28.667 0 52.667 -10 72 -30s29 -44 29 -72s-9.83301 -52 -29.5 -72s-43.5 -30 -71.5 -30c-27.333 0 -51 10 -71 30s-30 44 -30 72s9.83301 52 29.5 72s43.5 30 71.5 30zM139 712c-14.667 0 -27.1689 -5.33301 -37.502 -16s-15.5 -23.334 -15.5 -38.001
s5.16699 -27.167 15.5 -37.5s22.833 -15.5 37.5 -15.5s27.334 5.16699 38.001 15.5s16 22.833 16 37.5s-5.16699 27.334 -15.5 38.001s-23.166 16 -38.499 16z" />
    <glyph glyph-name="ogonek" unicode="&#x2db;" horiz-adv-x="278" 
d="M232 -147l0.000976562 -44c-30 -17.333 -61 -26 -93 -26c-30 0 -53.5 7 -70.5 21s-25.5 32 -25.5 54c0 28.667 11 55.667 33 81s50.667 46 86 62h43c-17.333 -12 -30.5 -21.833 -39.5 -29.5s-17.167 -17.5 -24.5 -29.5s-11 -25 -11 -39s2.66699 -25.833 8 -35.5
s12.166 -16 20.499 -19s14.666 -5 18.999 -6s8.83301 -1.5 13.5 -1.5c12.667 0 26.334 4 41.001 12z" />
    <glyph glyph-name="tilde" unicode="&#x2dc;" horiz-adv-x="278" 
d="M10 593l-52.001 0.000976562c5.33301 37.333 18.833 67.166 40.5 89.499s47.5 33.5 77.5 33.5c18.667 0 35.334 -3.66699 50.001 -11l57 -22c12 -4 23.333 -6 34 -6c25.333 0 41 15.333 47 46h51c-4.66699 -41.333 -18 -72.333 -40 -93
c-19.333 -19.333 -43.333 -29 -72 -29c-14.667 0 -32 3.66699 -52 11l-43 16c-20 6.66699 -35 10 -45 10c-25.333 0 -43 -15 -53 -45z" />
    <glyph glyph-name="hungarumlaut" unicode="&#x2dd;" 
d="M336 730l-138 -145h-80l84 145h134zM521 730l-138 -145h-80l84 145h134z" />
    <glyph glyph-name="uni03A9" unicode="&#x3a9;" horiz-adv-x="703" 
d="M170 106l-0.00195312 2.99707c-80 74.667 -120 166.667 -120 276c0 88.667 28.333 164 85 226s129.667 93 219 93c46.667 0 89.334 -9.33301 128.001 -28s70 -43.167 94 -73.5s42.5 -63.666 55.5 -99.999s19.5 -73.166 19.5 -110.499
c0 -58.667 -11.667 -112.667 -35 -162s-52.333 -89.666 -87 -120.999v-3h135v-106h-264v78c34 22 62.167 56.667 84.5 104s33.5 107.666 33.5 180.999c0 64.667 -14.667 119.5 -44 164.5s-69.666 67.5 -120.999 67.5c-50.667 0 -91.667 -22.167 -123 -66.5
s-47 -101.166 -47 -170.499c0 -68 11.333 -126.667 34 -176s50.667 -84 84 -104v-78h-265v106h134z" />
    <glyph glyph-name="uni03BC" unicode="&#x3bc;" horiz-adv-x="611" 
d="M70 -212l0.998047 717.001h128v-244c0 -26.667 1 -48.5 3 -65.5s6 -33.667 12 -50s15.667 -28.333 29 -36s30.333 -11.5 51 -11.5c18 0 33.5 3.66699 46.5 11s22.667 15.833 29 25.5s11.333 22.5 15 38.5s5.83398 29.833 6.50098 41.5s1 26.167 1 43.5v247h129v-505h-110
v60c-29.333 -46 -67.333 -69 -114 -69c-19.333 0 -36.5 3.33301 -51.5 10s-25.167 12.667 -30.5 18s-11.666 12.666 -18.999 21.999v-253h-126z" />
    <glyph glyph-name="pi" unicode="&#x3c0;" horiz-adv-x="601" 
d="M578 410l-69.999 -0.000976562v-262c0 -60 4.33301 -109.333 13 -148h-127c-11.333 20 -17 67.333 -17 142v268h-133c-2.66699 -62 -9.83398 -134 -21.501 -216s-25.5 -146.667 -41.5 -194h-127c16 56.667 29.833 125.334 41.5 206.001s18.167 148.667 19.5 204
c-44 0 -76.333 -3.33301 -97 -10l-14 87c28 22.667 83 34 165 34h419z" />
    <glyph glyph-name="uni2010" unicode="&#x2010;" horiz-adv-x="333" 
d="M44 208v113h248v-113h-248z" />
    <glyph glyph-name="endash" unicode="&#x2013;" horiz-adv-x="500" 
d="M0 213v97h500v-97h-500z" />
    <glyph glyph-name="emdash" unicode="&#x2014;" horiz-adv-x="1000" 
d="M130 213v97h740v-97h-740z" />
    <glyph glyph-name="quoteleft" unicode="&#x2018;" horiz-adv-x="278" 
d="M240 722l-71 -247h-146l112 247h105z" />
    <glyph glyph-name="quoteright" unicode="&#x2019;" horiz-adv-x="278" 
d="M39 475l71 247h146l-112 -247h-105z" />
    <glyph glyph-name="quotesinglbase" unicode="&#x201a;" horiz-adv-x="278" 
d="M102 133h148l-119 -246h-103z" />
    <glyph glyph-name="quotedblleft" unicode="&#x201c;" 
d="M280 722l-71 -247h-145l112 247h104zM476 722l-71 -247h-146l112 247h105z" />
    <glyph glyph-name="quotedblright" unicode="&#x201d;" 
d="M67 475l71 247h146l-113 -247h-104zM263 475l70 247h146l-112 -247h-104z" />
    <glyph glyph-name="quotedblbase" unicode="&#x201e;" 
d="M171 -113h-103l71 246h143zM370 -113h-103l71 246h143z" />
    <glyph glyph-name="dagger" unicode="&#x2020;" 
d="M214 465h-161v100h161v157h122v-157h157v-100h-157v-465h-122v465z" />
    <glyph glyph-name="daggerdbl" unicode="&#x2021;" 
d="M336 572h159v-97h-159v-225h159v-97h-159v-153h-122v153h-158v97h158v225h-161v97h161v150h122v-150z" />
    <glyph glyph-name="bullet" unicode="&#x2022;" horiz-adv-x="350" 
d="M175 542c50 0 92.667 -17.5 128 -52.5s53 -77.5 53 -127.5s-17.667 -92.667 -53 -128s-78 -53 -128 -53s-92.667 17.667 -128 53s-53 78 -53 128s17.667 92.5 53 127.5s78 52.5 128 52.5z" />
    <glyph glyph-name="ellipsis" unicode="&#x2026;" horiz-adv-x="1000" 
d="M117 0v133h127v-133h-127zM437 0v133h127v-133h-127zM757 0v133h127v-133h-127z" />
    <glyph glyph-name="perthousand" unicode="&#x2030;" horiz-adv-x="1000" 
d="M509 335c94.667 0 141.999 -53.335 141.999 -160.002c0 -16.667 -0.5 -31 -1.5 -43s-4 -27.667 -9 -47s-12.167 -35.166 -21.5 -47.499s-23.166 -23.166 -41.499 -32.499s-40.5 -14 -66.5 -14c-94 0 -141 56.667 -141 170c0 116 46.333 174 139 174zM510.999 67.998
c16 0 27.167 7.33398 33.5 22.001s9.5 39.667 9.5 75c0 30.667 -2.66699 54 -8 70s-16.333 24 -33 24c-18 0 -29.667 -8.33301 -35 -25s-8 -42.334 -8 -77.001c0 -30.667 2.66699 -53.167 8 -67.5s16.333 -21.5 33 -21.5zM844.999 334.999
c95.333 0 142.999 -53.335 142.999 -160.002c0 -16.667 -0.5 -31 -1.5 -43s-4 -27.667 -9 -47s-12.167 -35.166 -21.5 -47.499s-23.166 -23.166 -41.499 -32.499s-40.5 -14 -66.5 -14c-94.667 0 -142 56.667 -142 170c0 116 46.333 174 139 174zM847.998 67.9971
c16 0 26.999 7.33301 32.999 22s9 39.667 9 75c0 31.333 -2.66699 54.833 -8 70.5s-16.333 23.5 -33 23.5c-18 0 -29.667 -8.5 -35 -25.5s-8 -42.5 -8 -76.5c0 -30 2.83301 -52.333 8.5 -67s16.834 -22 33.501 -22zM146.997 718.997c94.667 0 142 -53.001 142 -159.001
c0 -16.667 -0.333008 -31 -1 -43s-3.66699 -27.833 -9 -47.5s-12.5 -35.667 -21.5 -48s-22.667 -23.166 -41 -32.499s-40.5 -14 -66.5 -14c-94.667 0 -142 57 -142 171c0 115.333 46.333 173 139 173zM149.997 451.996c16 0 26.999 7.33301 32.999 22s9 39.667 9 75
c0 31.333 -2.66699 55 -8 71s-16.333 24 -33 24c-18 0 -29.667 -8.5 -35 -25.5s-8 -42.833 -8 -77.5c0 -30 2.83301 -52.333 8.5 -67s16.834 -22 33.501 -22zM150.996 -16.0039h-75l427 743h73z" />
    <glyph glyph-name="guilsinglleft" unicode="&#x2039;" horiz-adv-x="278" 
d="M126 56l-109 196l109 190h132l-95 -190l95 -196h-132z" />
    <glyph glyph-name="guilsinglright" unicode="&#x203a;" horiz-adv-x="278" 
d="M10 442h132l109 -197l-109 -189h-132l95 189z" />
    <glyph glyph-name="fraction" unicode="&#x2044;" horiz-adv-x="167" 
d="M-167 -28l417 753h82l-417 -753h-82z" />
    <glyph glyph-name="Euro" unicode="&#x20ac;" 
d="M353 308l-17 -90.001h-118c4 -37.333 14.5 -67.333 31.5 -90s40.5 -34 70.5 -34c28 0 50.167 11.667 66.5 35s25.166 55 26.499 95h129c0 -73.333 -20 -131.166 -60 -173.499s-94 -63.5 -162 -63.5c-66 0 -118.5 20.667 -157.5 62s-64.833 97.666 -77.5 168.999h-79
l18 90h51c-0.666992 8 -1 20 -1 36c0 3.33301 0.166992 8.33301 0.5 15s0.5 11.334 0.5 14.001h-69l18 90h60c14 76 41.667 134.667 83 176s94.333 62 159 62c60.667 0 111.667 -20.167 153 -60.5s62 -97.5 62 -171.5h-127c-2 40 -11.333 71.833 -28 95.5
s-36.667 35.5 -60 35.5c-55.333 0 -91.666 -45.667 -108.999 -137h165l-17 -90h-155l-1 -15c0 -22 0.333008 -38.667 1 -50h143z" />
    <glyph glyph-name="afii61289" unicode="&#x2113;" horiz-adv-x="514" 
d="M443 187l53 -55.001c-48 -93.333 -117.667 -140 -209 -140c-56 0 -98.667 15 -128 45s-47 69 -53 117v10l-23 -18c-12 -9.33301 -21.333 -16.333 -28 -21l-32 69c49.333 40.667 76.333 63.334 81 68.001v247c0 84 17 147.333 51 190s77.333 64 130 64
c46 0 80.833 -16.5 104.5 -49.5s35.5 -75.5 35.5 -127.5c0 -103.333 -65 -217.333 -195 -342l1 -43c0.666992 -33.333 9 -59 25 -77s36.333 -27 61 -27c46.667 0 88.667 30 126 90zM230 511.999v-148.999c75.333 85.333 113 161.333 113 228c0 53.333 -17.333 80 -52 80
c-17.333 0 -31.833 -12.333 -43.5 -37s-17.5 -65.334 -17.5 -122.001z" />
    <glyph glyph-name="trademark" unicode="&#x2122;" horiz-adv-x="1000" 
d="M445 362v361h122l73 -264l79 264h118v-361h-74v310l-94 -310h-62l-93 310v-310h-69zM211 362v301h-127v60h329v-60h-126v-301h-76z" />
    <glyph glyph-name="Omega" unicode="&#x2126;" horiz-adv-x="703" 
d="M170 106l-0.00195312 2.99707c-80 74.667 -120 166.667 -120 276c0 88.667 28.333 164 85 226s129.667 93 219 93c46.667 0 89.334 -9.33301 128.001 -28s70 -43.167 94 -73.5s42.5 -63.666 55.5 -99.999s19.5 -73.166 19.5 -110.499
c0 -58.667 -11.667 -112.667 -35 -162s-52.333 -89.666 -87 -120.999v-3h135v-106h-264v78c34 22 62.167 56.667 84.5 104s33.5 107.666 33.5 180.999c0 64.667 -14.667 119.5 -44 164.5s-69.666 67.5 -120.999 67.5c-50.667 0 -91.667 -22.167 -123 -66.5
s-47 -101.166 -47 -170.499c0 -68 11.333 -126.667 34 -176s50.667 -84 84 -104v-78h-265v106h134z" />
    <glyph glyph-name="estimated" unicode="&#x212e;" horiz-adv-x="867" 
d="M832 338h-646c-4 0 -6 -1.33301 -6 -4v-196c0 -6 3 -13.333 9 -22c68.667 -70.667 150 -106 244 -106c102.667 0 188.667 39.667 258 119h57c-36 -42.667 -81.833 -76.5 -137.5 -101.5s-115.167 -37.5 -178.5 -37.5c-110 0 -203.833 35 -281.5 105
s-116.5 154.333 -116.5 253c0 99.333 38.833 184.166 116.5 254.499s171.5 105.5 281.5 105.5c110.667 0 205 -35.167 283 -105.5s117 -155.166 117 -254.499v-10zM686 364v196.999c0 8.66699 -3.33301 16.334 -10 23.001c-69.333 68 -150.333 102 -243 102
c-93.333 0 -174.333 -35 -243 -105c-6.66699 -6.66699 -10 -15 -10 -25v-192c0 -4 2 -6 6 -6h495c3.33301 0 5 2 5 6z" />
    <glyph glyph-name="partialdiff" unicode="&#x2202;" horiz-adv-x="573" 
d="M103 629l-36.9971 96.999c50 38.667 111.333 58 184 58c78 0 143.5 -33.167 196.5 -99.5s79.5 -159.166 79.5 -278.499c0 -125.333 -25 -225.5 -75 -300.5s-118.667 -112.5 -206 -112.5c-44.667 0 -83.334 12.5 -116.001 37.5s-56.167 55 -70.5 90
s-21.5 71.167 -21.5 108.5c0 78 20.5 140.833 61.5 188.5s92.167 71.5 153.5 71.5c35.333 0 65.666 -8.5 90.999 -25.5s43.333 -34.5 54 -52.5h1v33c0 63.333 -15.333 117.833 -46 163.5s-70.334 68.5 -119.001 68.5c-48 0 -91.333 -15.667 -130 -47zM258.003 101.999
l1 -0.000976562c33.333 0 61.5 20.667 84.5 62s37.167 88 42.5 140c-5.33301 18.667 -17.833 36.834 -37.5 54.501s-43.167 26.5 -70.5 26.5c-32 0 -58.667 -15.833 -80 -47.5s-32 -69.5 -32 -113.5c0 -34.667 8.5 -63.667 25.5 -87s39.167 -35 66.5 -35z" />
    <glyph glyph-name="uni2206" unicode="&#x2206;" horiz-adv-x="653" 
d="M26 0v76l226 632h156l218 -631v-77h-600zM161 105h325l-105 284c-4.66699 16 -14 45.833 -28 89.5s-23 73.167 -27 88.5h-3c-2.66699 -12 -10.667 -37.667 -24 -77s-22.333 -68 -27 -86z" />
    <glyph glyph-name="product" unicode="&#x220f;" horiz-adv-x="719" 
d="M694 575h-101v-671h-129v671h-210v-671h-129v671h-101v118h670v-118z" />
    <glyph glyph-name="summation" unicode="&#x2211;" horiz-adv-x="555" 
d="M537 -96h-514v84l237 311l-228 303v91h488v-111h-314v-3l201 -259l-223 -292v-3h353v-121z" />
    <glyph glyph-name="minus" unicode="&#x2212;" horiz-adv-x="584" 
d="M26 202v129h532v-129h-532z" />
    <glyph glyph-name="uni2215" unicode="&#x2215;" horiz-adv-x="167" 
d="M-167 -28l417 753h82l-417 -753h-82z" />
    <glyph glyph-name="uni2219" unicode="&#x2219;" horiz-adv-x="278" 
d="M74 213v133h127v-133h-127z" />
    <glyph glyph-name="radical" unicode="&#x221a;" horiz-adv-x="591" 
d="M600 832l-223.001 -970h-104l-147 432l-73 -29l-22 72l172 70l102 -311l11 -47c4.66699 -20 7.66699 -33.667 9 -41h1l6.5 39.5c3.66699 22.333 6.83398 40.5 9.50098 54.5l168 730h90z" />
    <glyph glyph-name="infinity" unicode="&#x221e;" horiz-adv-x="772" 
d="M725 287v-2.00098c0 -52 -16 -93.833 -48 -125.5s-69.333 -47.5 -112 -47.5c-62 0 -121.333 37.667 -178 113c-29.333 -36.667 -58 -64.667 -86 -84s-60.333 -29 -97 -29c-42 0 -78.667 16 -110 48s-47 72.333 -47 121c0 50 15.667 91 47 123s71 48 119 48
c62 0 121.333 -36.667 178 -110c33.333 38.667 59 64.334 77 77.001c31.333 22 65.333 33 102 33c44.667 -0.666992 81.667 -16.167 111 -46.5s44 -69.833 44 -118.5zM213 182.999h1.99805c17.333 0 34.833 5.33301 52.5 16s31.334 21.167 41.001 31.5
s23.167 25.833 40.5 46.5l-42 55c-8 10 -21.167 21 -39.5 33s-37.5 18 -57.5 18c-27.333 0 -49.166 -9.66699 -65.499 -29s-24.5 -44 -24.5 -74c0 -26.667 9 -49.5 27 -68.5s40 -28.5 66 -28.5zM562.998 382.999h-1.00098c-9.33301 0 -19 -1.83301 -29 -5.5
s-18.5 -7.5 -25.5 -11.5s-15.167 -10.5 -24.5 -19.5s-16 -15.667 -20 -20s-10.667 -12 -20 -23s-14.666 -17.5 -15.999 -19.5c30.667 -38.667 55.667 -65.167 75 -79.5s41 -21.5 65 -21.5c25.333 0 45.833 10.167 61.5 30.5s23.5 42.5 23.5 66.5
c0 30 -8.16699 54.667 -24.5 74s-37.833 29 -64.5 29z" />
    <glyph glyph-name="integral" unicode="&#x222b;" horiz-adv-x="396" 
d="M374 846l-13.999 -89.001c-12 5.33301 -23.667 8 -35 8c-21.333 0 -38 -8.33301 -50 -25c-17.333 -23.333 -26 -78.666 -26 -165.999c0 -52.667 2.5 -129.5 7.5 -230.5s7.5 -182.167 7.5 -243.5c0 -89.333 -12 -155.666 -36 -198.999c-24.667 -48.667 -68 -73 -130 -73
c-32 0 -58 5.33301 -78 16l16 92c16.667 -6.66699 31 -10 43 -10c19.333 0 34 6.66699 44 20c17.333 23.333 26 74 26 152c0 61.333 -2.5 144 -7.5 248s-7.5 184 -7.5 240c0 58.667 4.66699 105.167 14 139.5s24.666 63.166 45.999 86.499c28.667 30.667 68 46 118 46
c22 0 42.667 -4 62 -12z" />
    <glyph glyph-name="approxequal" unicode="&#x2248;" horiz-adv-x="546" 
d="M461 450l44.998 -42.002c-16 -31.333 -35.667 -56.333 -59 -75s-48.666 -28 -75.999 -28c-30.667 0 -67.667 13 -111 39c-35.333 22 -63.666 33 -84.999 33c-13.333 0 -26 -3.83301 -38 -11.5s-21.5 -15.667 -28.5 -24s-15.5 -20.166 -25.5 -35.499l-46 42
c15.333 30 35.833 54.667 61.5 74s53.5 29 83.5 29c5.33301 0 10.333 -0.166992 15 -0.5s9.5 -1.16602 14.5 -2.49902s9.33301 -2.33301 13 -3s7.83398 -2.16699 12.501 -4.5s8.16699 -4 10.5 -5s6 -2.83301 11 -5.5l9.5 -5c1.33301 -0.666992 4.5 -2.5 9.5 -5.5
s7.83301 -4.83301 8.5 -5.5c2 -1.33301 6.66699 -4.16602 14 -8.49902s12 -7 14 -8l11.5 -6c5.66699 -3 9.66699 -4.83301 12 -5.5s5.66602 -1.83398 9.99902 -3.50098s8.5 -2.66699 12.5 -3s8 -0.5 12 -0.5c18 0 33.5 5.83301 46.5 17.5s27.167 29.5 42.5 53.5z
M460.998 263.998l45.0039 -42.999c-36 -68.667 -81 -103 -135 -103c-18.667 0 -35.667 3 -51 9s-35.333 16.333 -60 31c-36 22.667 -64 34 -84 34c-14 0 -27.167 -4.16699 -39.5 -12.5s-21.333 -16 -27 -23s-14.5 -19.167 -26.5 -36.5l-46 42
c15.333 30 35.833 54.5 61.5 73.5s53.167 28.5 82.5 28.5c6.66699 0 13.167 -0.333008 19.5 -1s12.666 -1.83398 18.999 -3.50098s11.5 -3.16699 15.5 -4.5s9 -3.5 15 -6.5s10.167 -5 12.5 -6s6.66602 -3.33301 12.999 -7s9.83301 -5.83398 10.5 -6.50098l21 -13
c10.667 -6.66699 18.167 -11 22.5 -13s10.666 -4.33301 18.999 -7s16.166 -4 23.499 -4c17.333 0 32.5 5.83301 45.5 17.5s27.5 29.834 43.5 54.501z" />
    <glyph glyph-name="notequal" unicode="&#x2260;" horiz-adv-x="546" 
d="M402 510l-38 -87h134v-75h-162l-58 -134h220v-74h-249l-49 -113l-59 24l39 89h-133v74h162l58 134h-220v75h248l48 110z" />
    <glyph glyph-name="lessequal" unicode="&#x2264;" horiz-adv-x="546" 
d="M495 99l-442 221v81l442 221v-87l-368 -173v-2l368 -174v-87zM499 -14h-450v76h450v-76z" />
    <glyph glyph-name="greaterequal" unicode="&#x2265;" horiz-adv-x="546" 
d="M54 622l443 -221v-81l-442 -221v87l367 174v2l-368 173v87zM497 -14h-448v76h448v-76z" />
    <glyph glyph-name="lozenge" unicode="&#x25ca;" horiz-adv-x="590" 
d="M542 346l-198 -395h-104l-191 395l197 395h104zM427 343l-111.001 233c-9.33301 24 -15.333 44 -18 60h-4c-4 -20 -10.333 -40 -19 -60l-111 -228l112 -236c8.66699 -24.667 14 -43.667 16 -57h5c4.66699 22 10.334 40.333 17.001 55z" />
    <glyph glyph-name="fi" unicode="&#xfb01;" horiz-adv-x="611" 
d="M78 0l-0.00195312 399.999h-76v105h76v69c0 50.667 12.167 90.167 36.5 118.5s69.833 42.5 136.5 42.5c26 0 52.667 -1.66699 80 -5v-103c-15.333 2 -25.666 3 -30.999 3c-17.333 0 -31.666 -2 -42.999 -6s-19 -10 -23 -18s-6.5 -14.667 -7.5 -20
s-1.5 -12.666 -1.5 -21.999v-59h93v-105h-93v-400h-147zM392.998 592.999v129h158v-129h-158zM397.998 -0.000976562v506h148v-506h-148z" />
    <glyph glyph-name="fl" unicode="&#xfb02;" horiz-adv-x="611" 
d="M80 0v399.999h-75v105h75v69c0 50.667 12.333 90.167 37 118.5s70.334 42.5 137.001 42.5c25.333 0 51.666 -1.66699 78.999 -5v-103c-14 2 -24 3 -30 3c-18 0 -32.5 -2 -43.5 -6s-18.667 -10 -23 -18s-7 -14.667 -8 -20s-1.5 -12.666 -1.5 -21.999v-59h94v-105h-94v-400
h-147zM398 -0.000976562v723h148v-723h-148z" />
    <glyph glyph-name=".null" horiz-adv-x="0" 
 />
    <glyph glyph-name="nonmarkingreturn" horiz-adv-x="333" 
 />
    <glyph glyph-name="a.superior" horiz-adv-x="334" 
d="M318 392l-87.002 0.00195312c-2 13.333 -3 27.333 -3 42c-23.333 -32.667 -56 -49 -98 -49c-39.333 0 -67.666 9.16699 -84.999 27.5s-26 39.166 -26 62.499c0 22.667 7.16699 43 21.5 61s33.833 30.667 58.5 38c29.333 8 69.333 12 120 12c0 12.667 -0.5 22.667 -1.5 30
s-5.16699 15.166 -12.5 23.499s-18.333 12.5 -33 12.5c-11.333 0 -21.5 -3.33301 -30.5 -10s-13.5 -18 -13.5 -34h-94c0 24.667 7.83301 44.5 23.5 59.5s32.834 24.833 51.501 29.5s39 7 61 7c93.333 0 140 -37.667 140 -113v-122c0 -28 2.66699 -53.667 8 -77z
M218.998 535.002c-31.333 2 -56.833 -1.16699 -76.5 -9.5s-29.5 -21.833 -29.5 -40.5c0 -12 4.5 -22 13.5 -30s20.5 -12 34.5 -12c38.667 0 58 30.667 58 92z" />
    <glyph glyph-name="o.superior" horiz-adv-x="367" 
d="M14 541c0 49.333 15.167 88.499 45.5 117.499s71.833 43.5 124.5 43.5c54.667 0 96.667 -14.667 126 -44s44 -67.666 44 -114.999c0 -46 -14.833 -84.5 -44.5 -115.5s-72.167 -46.5 -127.5 -46.5c-58 0 -100.5 15.833 -127.5 47.5s-40.5 69.167 -40.5 112.5zM113 539.999
c0 -64.667 23.667 -97 71 -97c48 0 72 34 72 102c0 65.333 -23.667 98 -71 98c-48 0 -72 -34.333 -72 -103z" />
    <glyph glyph-name="one.superior" horiz-adv-x="333" 
d="M48 553v84c43.333 16.667 83.333 37.667 120 63h84v-419h-98v326c-36 -24 -71.333 -42 -106 -54z" />
    <glyph glyph-name="two.superior" horiz-adv-x="333" 
d="M112 585l-98.9971 0.000976562c0 31.333 8.66699 57.333 26 78c28 30.667 71.667 46 131 46c46.667 0 83.667 -10.5 111 -31.5s41 -48.5 41 -82.5c0 -24 -6 -45.5 -18 -64.5s-36.333 -45.5 -73 -79.5c-30 -28.667 -71 -62.334 -123 -101.001
c123.333 2.66699 195.666 4 216.999 4v-69h-318v84l117 99c35.333 29.333 62.666 56.333 81.999 81c12 16 18 31.333 18 46c0 14 -5 26 -15 36s-22.667 15 -38 15c-18.667 0 -32.834 -5.83301 -42.501 -17.5s-15.167 -26.167 -16.5 -43.5z" />
    <glyph glyph-name="three.superior" horiz-adv-x="333" 
d="M6 395h98.9971c2.66699 -37.333 22.334 -56 59.001 -56c15.333 0 28.833 4.66699 40.5 14s17.5 23.666 17.5 42.999c0 14.667 -3 26.5 -9 35.5s-15.5 15.333 -28.5 19s-24.167 5.83398 -33.5 6.50098s-22.666 1 -39.999 1v70c15.333 0 28.333 0.666992 39 2
s22.167 4 34.5 8s21.833 10.333 28.5 19s10 19.667 10 33c0 16 -5.5 28.333 -16.5 37s-24.5 13 -40.5 13c-16.667 0 -30.167 -4.83301 -40.5 -14.5s-15.166 -22.167 -14.499 -37.5h-99c3.33301 32 12 55.667 26 71c28 30.667 70.667 46 128 46
c48 0 85.167 -11.667 111.5 -35s39.5 -49.666 39.5 -78.999c0 -46.667 -29 -78.334 -87 -95.001c60.667 -16.667 91 -50 91 -100c0 -36 -15.667 -65.667 -47 -89s-70.333 -35 -117 -35c-58.667 0 -100 14 -124 42c-18 20.667 -27 47.667 -27 81z" />
    </font>
</defs>
</svg>
